<?xml version="1.0" encoding="utf-8"?>
<!-- Generator: Adobe Illustrator 22.1.0, SVG Export Plug-In . SVG Version: 6.00 Build 0)  -->
<svg version="1.1" id="Layer_1" xmlns="http://www.w3.org/2000/svg" xmlns:xlink="http://www.w3.org/1999/xlink" x="0px" y="0px"
	 viewBox="0 0 145.6 125.7" style="enable-background:new 0 0 145.6 125.7;" xml:space="preserve">
<style type="text/css">
	.st0{fill:none;}
	.st1{fill:#008971;}
	.st2{fill:#00D1AD;}
	.st3{fill:#00B49B;}
	.st4{fill:#009E93;}
	.st5{fill:#00888B;}
	.st6{fill:#007384;}
	.st7{fill:#435B7C;}
	.st8{fill:#674374;}
	.st9{fill:#822B6B;}
	.st10{fill:#F97085;}
</style>
<g>
	<polygon class="st0" points="102.4,107 87.8,115.4 69.9,125.7 52,115.4 37.4,107 69.9,88.2 	"/>
</g>
<g>
	<polygon class="st1" points="106.6,64.5 72.8,125 72.8,84 	"/>
</g>
<g>
	<polygon class="st2" points="72.8,84 72.8,125 39,64.5 	"/>
</g>
<g>
	<polygon class="st3" points="145.6,42 109.2,63 72.8,84 36.4,63 0,42 35,21.8 72.8,43.6 110.6,21.8 	"/>
	<polygon class="st4" points="3.4,37 29.7,21.8 36.8,18.8 49,25.8 72.8,39.6 96.5,25.9 108.8,18.8 115.9,21.8 142.2,37 109.4,55.9 
		91.1,66.5 72.8,77.1 54.5,66.5 36.2,55.9 	"/>
	<polygon class="st5" points="6.8,32 31.8,17.5 38.5,15.7 50.2,22.4 72.8,35.5 95.4,22.4 107.1,15.7 113.8,17.5 138.8,32 
		109.7,48.8 91.2,59.4 72.8,70.1 54.4,59.4 35.9,48.8 	"/>
	<polygon class="st6" points="10.2,26.9 33.9,13.2 40.3,12.6 51.4,19 72.8,31.4 94.2,19 105.3,12.6 111.7,13.2 135.4,26.9 
		109.9,41.7 91.3,52.4 72.8,63.1 54.2,52.4 35.7,41.7 	"/>
	<polygon class="st7" points="13.6,22.2 36,9.3 42.1,9.9 52.5,15.9 72.8,27.6 93,15.9 103.5,9.9 109.5,9.3 132,22.2 110.1,34.8 
		91.5,45.6 72.8,56.4 54.1,45.6 35.5,34.8 	"/>
	<polygon class="st8" points="17,17.8 38.1,5.6 43.8,7.4 53.7,13.1 72.8,24.2 91.9,13.1 101.8,7.4 107.4,5.6 128.6,17.8 110.4,28.3 
		91.6,39.2 72.8,50 54,39.2 35.2,28.3 	"/>
	<polygon class="st9" points="125.2,13.4 110.6,21.8 91.7,32.7 72.8,43.6 53.9,32.7 35,21.8 20.4,13.4 40.3,1.9 54.9,10.3 
		72.8,20.7 90.7,10.3 105.3,1.9 	"/>
</g>
<g>
	<polygon class="st0" points="90.7,10.3 72.8,20.7 54.9,10.3 72.8,0 	"/>
</g>
<g>
	<polygon class="st10" points="104.8,14.2 88.4,23.6 76.3,30.6 72.1,28.2 67.9,30.6 55.7,23.6 39.4,14.2 62.3,0.9 72.1,6.5 
		81.8,0.9 	"/>
</g>
</svg>
