<svg xmlns="http://www.w3.org/2000/svg" xmlns:xlink="http://www.w3.org/1999/xlink" version="1.1" x="0px" y="0px" width="2048" height="716" viewBox="0 0 963.266 337.215" enable-background="new 0 0 963.266 337.215" xml:space="preserve">
  <g key="\`">
    <path d="M10.929,0h20.085h18.854h10v61h-10H31.014H10.929h-10V10C0.929,4.5,5.429,0,10.929,0z" fill="#2196F3"/>
  </g>
  <g key="fn">
    <path d="M10.321,337.406h20.607h19.344h10.26v-61h-10.26H30.929H10.321H0.061v51C0.061,332.906,4.678,337.406,10.321,337.406z" fill="#2196F3"/>
  </g>
  <g key="ctrl">
    <path d="M953.005,337.215h-20.607h-19.344h-28.921v-61h28.921h19.344h20.607h10.261v51   C963.266,332.715,958.648,337.215,953.005,337.215z" fill="#2196F3"/>
  </g>
  <g key="q">
    <rect x="114.937" y="69.052" width="59" height="61" fill="#2196F3"/>
  </g>
  <g key="tab">
    <rect x="0.901" y="69.052" width="108.989" height="61" fill="#2196F3"/>
  </g>
  <g key="w">
    <rect x="179.463" y="69.052" width="59" height="61" fill="#2196F3"/>
  </g>
  <g key="e">
    <rect x="243.989" y="69.052" width="59" height="61" fill="#2196F3"/>
  </g>
  <g key="r">
    <rect x="308.515" y="69.052" width="59" height="61" fill="#2196F3"/>
  </g>
  <g key="t">
    <rect x="373.042" y="69.052" width="58.999" height="61" fill="#2196F3"/>
  </g>
  <g key="y">
    <rect x="437.568" y="69.052" width="59" height="61" fill="#2196F3"/>
  </g>
  <g key="u">
    <rect x="502.094" y="69.052" width="59" height="61" fill="#2196F3"/>
  </g>
  <g key="i">
    <rect x="566.62" y="69.052" width="59" height="61" fill="#2196F3"/>
  </g>
  <g key="o">
    <rect x="631.146" y="69.052" width="59" height="61" fill="#2196F3"/>
  </g>
  <g key="p">
    <rect x="695.672" y="69.052" width="59" height="61" fill="#2196F3"/>
  </g>
  <g key="[">
    <rect x="760.198" y="69.052" width="59" height="61" fill="#2196F3"/>
  </g>
  <g key="]">
    <rect x="824.725" y="69.052" width="59" height="61" fill="#2196F3"/>
  </g>
  <g key="1">
    <rect x="65.425" width="59" height="61" fill="#2196F3"/>
  </g>
  <g key="2">
    <rect x="129.951" width="59" height="61" fill="#2196F3"/>
  </g>
  <g key="3">
    <rect x="194.478" width="59" height="61" fill="#2196F3"/>
  </g>
  <g key="4">
    <rect x="259.004" width="59" height="61" fill="#2196F3"/>
  </g>
  <g key="5">
    <rect x="323.53" width="59" height="61" fill="#2196F3"/>
  </g>
  <g key="6">
    <rect x="388.056" width="59" height="61" fill="#2196F3"/>
  </g>
  <g key="7">
    <rect x="452.582" width="59" height="61" fill="#2196F3"/>
  </g>
  <g key="8">
    <rect x="517.109" width="59" height="61" fill="#2196F3"/>
  </g>
  <g key="9">
    <rect x="581.635" width="59" height="61" fill="#2196F3"/>
  </g>
  <g key="0">
    <rect x="646.161" width="59" height="61" fill="#2196F3"/>
  </g>
  <g key="-">
    <rect x="710.688" width="59" height="61" fill="#2196F3"/>
  </g>
  <g key="=">
    <rect x="775.213" width="59" height="61" fill="#2196F3"/>
  </g>
  <g key="\">
    <rect x="839.74" width="59" height="61" fill="#2196F3"/>
  </g>
  <g key="ctrl">
    <rect x="65.235" y="275.636" width="59" height="61" fill="#2196F3"/>
  </g>
  <g key="command">
    <rect x="129.951" y="276.215" width="59" height="61" fill="#2196F3"/>
  </g>
  <g key="alt">
    <rect x="194.397" y="276.215" width="59" height="61" fill="#2196F3"/>
  </g>
  <g key="space">
    <polygon points="579.125,276.215 519.562,276.215 454.423,276.215 389.283,276.215 324.144,276.215 259.004,276.215    259.004,337.215 324.144,337.215 389.283,337.215 454.423,337.215 519.562,337.215 579.125,337.215 641.233,337.215    641.233,276.215  " fill="#2196F3"/>
  </g>
  <g key="alt">
    <rect x="646.207" y="276.215" width="74.007" height="61" fill="#2196F3"/>
  </g>
  <g key="command">
    <rect x="725.611" y="276.215" width="77.016" height="61" fill="#2196F3"/>
  </g>
  <g key="pause/break">
    <rect x="808.738" y="276.215" width="70.5" height="61" fill="#2196F3"/>
  </g>
  <g key="caps lock">
    <polygon points="69.648,139.106 0,139.106 0,200.105 69.648,200.105 133.332,200.105 133.332,139.106  " fill="#2196F3"/>
  </g>
  <g key="a">
    <rect x="139.432" y="138.105" width="59" height="61" fill="#2196F3"/>
  </g>
  <g key="s">
    <rect x="203.958" y="138.105" width="59" height="61" fill="#2196F3"/>
  </g>
  <g key="d">
    <rect x="268.484" y="138.105" width="59" height="61" fill="#2196F3"/>
  </g>
  <g key="f">
    <rect x="333.01" y="138.105" width="59" height="61" fill="#2196F3"/>
  </g>
  <g key="g">
    <rect x="397.537" y="138.105" width="58.999" height="61" fill="#2196F3"/>
  </g>
  <g key="h">
    <rect x="462.062" y="138.105" width="59" height="61" fill="#2196F3"/>
  </g>
  <g key="j">
    <rect x="526.589" y="138.105" width="59" height="61" fill="#2196F3"/>
  </g>
  <g key="k">
    <rect x="591.115" y="138.105" width="59" height="61" fill="#2196F3"/>
  </g>
  <g key="l">
    <rect x="655.641" y="138.105" width="59" height="61" fill="#2196F3"/>
  </g>
  <g key=";">
    <rect x="720.166" y="138.105" width="59" height="61" fill="#2196F3"/>
  </g>
  <g key="'">
    <rect x="784.694" y="138.105" width="59" height="61" fill="#2196F3"/>
  </g>
  <g key="enter">
    <polygon points="963.204,69.052 889.783,69.052 889.783,138.105 849.223,138.105 849.223,199.105 909.781,199.105 909.784,199.105    963.203,199.105 963.203,138.107 963.204,138.107  " fill="#2196F3"/>
  </g>
  <g key="z">
    <rect x="162.454" y="207.159" width="59" height="61" fill="#2196F3"/>
  </g>
  <g key="x">
    <rect x="226.98" y="207.159" width="59" height="61" fill="#2196F3"/>
  </g>
  <g key="c">
    <rect x="291.506" y="207.159" width="59" height="61" fill="#2196F3"/>
  </g>
  <g key="v">
    <rect x="356.033" y="207.159" width="59" height="61" fill="#2196F3"/>
  </g>
  <g key="b">
    <rect x="420.559" y="207.159" width="59" height="61" fill="#2196F3"/>
  </g>
  <g key="n">
    <rect x="485.085" y="207.159" width="58.999" height="61" fill="#2196F3"/>
  </g>
  <g key="m">
    <rect x="549.612" y="207.159" width="59" height="61" fill="#2196F3"/>
  </g>
  <g key=",">
    <rect x="614.138" y="207.159" width="59" height="61" fill="#2196F3"/>
  </g>
  <g key=".">
    <rect x="678.663" y="207.159" width="59" height="61" fill="#2196F3"/>
  </g>
  <g key="/">
    <rect x="743.19" y="207.159" width="59" height="61" fill="#2196F3"/>
  </g>
  <g key="shift">
    <polygon points="127.784,207.159 66.75,207.159 0,207.159 0,268.159 66.75,268.159 127.784,268.159 156.899,268.159    156.899,207.159  " fill="#2196F3"/>
  </g>
  <g key="shift">
    <polygon points="934.291,207.161 873.684,207.161 807.399,207.161 807.399,268.161 873.684,268.161 934.291,268.161    963.204,268.161 963.204,207.161  " fill="#2196F3"/>
  </g>
  <g key="backspace">
    <path d="M953.266,0h-20.085h-18.854h-10v61h10h18.854h20.085h10V10C963.266,4.5,958.766,0,953.266,0z" fill="#2196F3"/>
  </g>
  <g>
    <g>
      <rect x="734.44" y="16.951" fill="#FFFFFF" width="11.495" height="2.364"/>
    </g>
    <g>
      <rect x="732.656" y="34.592" fill="#FFFFFF" width="15.061" height="2.365"/>
    </g>
  </g>
  <g>
    <g>
      <polygon fill="#FFFFFF" points="803.615,23.07 805.787,23.07 805.787,18.985 810.024,18.985 810.024,16.822 805.787,16.822     805.787,12.758 803.615,12.758 803.615,16.822 799.403,16.822 799.403,18.985 803.615,18.985   "/>
    </g>
    <g>
      <rect x="799.082" y="45.035" fill="#FFFFFF" width="11.262" height="2.387"/>
    </g>
    <g>
      <rect x="799.082" y="40.597" fill="#FFFFFF" width="11.262" height="2.377"/>
    </g>
  </g>
  <g>
    <g>
      <rect x="867.971" y="7.296" fill="#FFFFFF" width="2.535" height="18.781"/>
    </g>
    <g>
      <polygon fill="#FFFFFF" points="866.594,34.592 864.294,34.592 871.815,55.346 874.185,55.346   "/>
    </g>
  </g>
  <g>
    <path fill="#FFFFFF" d="M22.132,10.193L22.132,10.193L22.132,10.193z"/>
  </g>
  <g>
    <g>
      <path fill="#FFFFFF" d="M33.5,9.918l-0.031,0.239c-0.116,0.885-0.576,0.998-0.965,0.998c-0.201,0-0.644-0.095-1.612-0.549    c-0.88-0.412-1.001-0.463-1.045-0.479c-0.378-0.139-0.77-0.209-1.162-0.209c-0.766,0-1.403,0.272-1.893,0.81    c-0.483,0.53-0.728,1.183-0.728,1.94v0.275h1.228l0.034-0.235c0.13-0.889,0.584-1.003,0.965-1.003    c0.126,0,0.505,0.076,1.627,0.584c0.984,0.439,1.705,0.653,2.203,0.653c0.766,0,1.401-0.271,1.888-0.805    c0.479-0.526,0.722-1.181,0.723-1.945V9.917L33.5,9.918L33.5,9.918z"/>
    </g>
    <g>
      <polygon fill="#FFFFFF" points="27.065,34.85 31.403,39.899 33.618,39.899 30.601,34.85   "/>
    </g>
  </g>
  <g>
    <g/>
    <g/>
    <g>
      <path fill="#FFFFFF" d="M81.878,35.091l-3.349,2.782l0.882,1.044l1.3-1.122c0.265-0.241,0.461-0.43,0.589-0.563l0.064-0.063    c0.115-0.134,0.197-0.237,0.247-0.309l0.268-0.351v12.726h1.643V35.091H81.878z"/>
    </g>
    <g>
      <rect x="104.043" y="19.842" fill="#FFFFFF" width="2.396" height="2.373"/>
    </g>
    <g>
      <polygon fill="#FFFFFF" points="106.176,18.173 106.446,7.521 103.906,7.521 104.266,18.173   "/>
    </g>
    <g/>
  </g>
  <g/>
  <g>
    <g>
      <path fill="#FFFFFF" d="M171.875,7.797c-2.076,0-3.834,0.715-5.274,2.144c-1.439,1.431-2.16,3.188-2.16,5.271    c0,0.504,0.05,0.999,0.15,1.481c0.312,1.537,0.984,2.807,2.015,3.809c1.373,1.338,3.18,2.005,5.419,2.005    c1.658,0,3.161-0.274,4.513-0.821l-0.235-0.854c-1.322,0.561-2.769,0.842-4.341,0.842c-2.014,0-3.605-0.611-4.779-1.834    c-1.195-1.245-1.792-2.781-1.792-4.608c0-1.835,0.629-3.392,1.887-4.672c1.26-1.28,2.813-1.92,4.662-1.92    c1.693,0,3.088,0.51,4.188,1.531c1.098,1.02,1.646,2.324,1.646,3.909c0,1.053-0.245,2.001-0.735,2.848    c-0.513,0.889-1.103,1.333-1.771,1.333c-0.397,0-0.597-0.369-0.597-1.109c0-0.234,0.046-0.589,0.139-1.065l0.821-4.225h-1.28    l-0.235,1.407c-0.411-1.095-1.243-1.642-2.494-1.642c-0.49,0-0.972,0.109-1.44,0.331c-0.747,0.349-1.349,0.874-1.808,1.578    c-0.459,0.703-0.688,1.465-0.688,2.282c0,0.591,0.089,1.103,0.268,1.536c0.532,1.323,1.501,1.984,2.9,1.984    c1.074,0,2.027-0.622,2.859-1.867c0.155,1.017,0.649,1.525,1.482,1.525c0.874,0,1.659-0.491,2.353-1.473    c0.692-0.98,1.04-2.137,1.04-3.467c0-1.798-0.635-3.292-1.904-4.479C175.411,8.391,173.808,7.797,171.875,7.797z M172.984,17.15    c-0.483,0.654-1.077,0.981-1.78,0.981c-0.308,0-0.584-0.061-0.833-0.181c-0.812-0.378-1.217-1.096-1.217-2.155    c0-0.818,0.257-1.541,0.77-2.17c0.512-0.629,1.127-0.944,1.845-0.944c0.583,0,1.052,0.199,1.408,0.597    c0.354,0.398,0.533,0.926,0.533,1.579C173.71,15.732,173.468,16.496,172.984,17.15z"/>
    </g>
    <g>
      <path fill="#FFFFFF" d="M172.024,22.756c-2.298,0-4.18-0.698-5.593-2.076c-1.064-1.035-1.766-2.359-2.085-3.938    c-0.103-0.494-0.155-1.01-0.155-1.531c0-2.142,0.751-3.975,2.234-5.448c1.483-1.471,3.316-2.216,5.451-2.216    c1.991,0,3.665,0.622,4.977,1.849c1.316,1.23,1.983,2.798,1.983,4.661c0,1.376-0.365,2.591-1.086,3.611    c-0.74,1.047-1.6,1.579-2.557,1.579c-0.572,0-1.273-0.221-1.6-1.188c-0.804,1.016-1.724,1.53-2.742,1.53    c-1.507,0-2.561-0.72-3.132-2.141c-0.189-0.459-0.286-1.008-0.286-1.629c0-0.864,0.245-1.678,0.729-2.419    c0.482-0.74,1.125-1.301,1.911-1.668c0.497-0.235,1.018-0.354,1.546-0.354c1.067,0,1.861,0.373,2.371,1.11l0.147-0.876h1.795    l-0.879,4.522c-0.089,0.457-0.134,0.799-0.134,1.018c0,0.57,0.117,0.859,0.347,0.859c0.577,0,1.086-0.395,1.555-1.208    c0.466-0.804,0.702-1.72,0.702-2.723c0-1.507-0.527-2.76-1.566-3.726c-1.046-0.972-2.398-1.464-4.018-1.464    c-1.771,0-3.279,0.621-4.484,1.845c-1.204,1.226-1.815,2.739-1.815,4.497c0,1.752,0.58,3.245,1.722,4.435    c1.12,1.166,2.667,1.757,4.599,1.757c1.529,0,2.957-0.276,4.243-0.822l0.263-0.111l0.371,1.343l-0.207,0.083    C175.254,22.474,173.704,22.756,172.024,22.756z M171.875,8.047c-1.998,0-3.713,0.697-5.098,2.071    c-1.384,1.375-2.086,3.089-2.086,5.093c0,0.487,0.049,0.969,0.145,1.43c0.3,1.479,0.954,2.718,1.944,3.681    c1.317,1.283,3.082,1.934,5.245,1.934c1.531,0,2.947-0.243,4.212-0.722l-0.101-0.365c-1.279,0.5-2.682,0.754-4.175,0.754    c-2.074,0-3.742-0.643-4.959-1.911c-1.235-1.287-1.862-2.896-1.862-4.782c0-1.894,0.659-3.524,1.958-4.847    c1.302-1.324,2.931-1.995,4.84-1.995c1.75,0,3.216,0.538,4.357,1.598c1.146,1.064,1.727,2.441,1.727,4.092    c0,1.091-0.259,2.092-0.769,2.973c-0.558,0.967-1.227,1.458-1.988,1.458c-0.386,0-0.847-0.236-0.847-1.359    c0-0.254,0.047-0.618,0.143-1.113l0.764-3.927h-0.766l-0.354,2.116l-0.327-0.871c-0.374-0.996-1.113-1.479-2.26-1.479    c-0.454,0-0.903,0.104-1.333,0.307c-0.701,0.327-1.274,0.828-1.705,1.489c-0.43,0.658-0.648,1.38-0.648,2.146    c0,0.556,0.083,1.041,0.249,1.441c0.496,1.232,1.369,1.83,2.669,1.83c0.981,0,1.873-0.591,2.651-1.756l0.358-0.536l0.097,0.637    c0.18,1.177,0.791,1.313,1.235,1.313c0.785,0,1.508-0.46,2.148-1.367c0.66-0.935,0.994-2.052,0.994-3.323    c0-1.719-0.614-3.164-1.825-4.296C175.294,8.624,173.735,8.047,171.875,8.047z M171.204,18.381c-0.342,0-0.659-0.069-0.941-0.206    c-0.9-0.419-1.358-1.221-1.358-2.38c0-0.873,0.278-1.656,0.826-2.328c0.56-0.688,1.246-1.036,2.039-1.036    c0.653,0,1.19,0.229,1.594,0.68c0.396,0.446,0.597,1.033,0.597,1.746c0,0.925-0.261,1.747-0.774,2.442    C172.655,18.017,171.988,18.381,171.204,18.381z M171.768,12.931c-0.644,0-1.184,0.279-1.651,0.852    c-0.48,0.589-0.713,1.247-0.713,2.012c0,0.962,0.351,1.593,1.072,1.929c0.221,0.106,0.458,0.157,0.728,0.157    c0.625,0,1.142-0.288,1.579-0.88c0.449-0.607,0.677-1.329,0.677-2.145c0-0.587-0.158-1.062-0.47-1.413    C172.68,13.099,172.281,12.931,171.768,12.931z"/>
    </g>
  </g>
  <g>
    <path fill="#FFFFFF" d="M144.599,48.103c-0.846,0.085-1.479,0.167-1.897,0.245c0.426-0.305,0.812-0.593,1.162-0.864   c0.689-0.547,1.308-1.077,1.855-1.589c1.813-1.699,3.071-3.143,3.775-4.33c0.541-0.925,0.812-1.825,0.812-2.699   c0-1.122-0.42-2.032-1.259-2.729c-0.839-0.697-1.94-1.045-3.307-1.045c-0.313,0-0.608,0.011-0.885,0.032   c-0.746,0.069-1.656,0.315-2.729,0.734l0.159,1.419c1.081-0.61,2.122-0.917,3.125-0.917c0.434,0,0.839,0.062,1.216,0.183   c1.237,0.42,1.856,1.209,1.856,2.368c0,1.002-0.54,2.188-1.622,3.562c-1.06,1.329-2.76,3.008-5.099,5.034v1.897h8.854v-1.302   h-5.494C144.93,48.103,144.755,48.103,144.599,48.103z"/>
  </g>
  <g/>
  <g>
    <g/>
    <g>
      <path fill="#FFFFFF" d="M230.885,22.215h1.759l0.706-4.416h2.693l-0.701,4.416h1.764l0.703-4.416h1.943l0.234-1.521h-1.939    l0.473-3.087h1.922l0.251-1.521h-1.91l0.66-4.148h-1.762l-0.661,4.085h-2.686l0.641-4.085h-1.752l-0.661,4.148h-1.938    l-0.268,1.521h1.884l-0.479,3.087h-1.875l-0.251,1.521h1.952L230.885,22.215z M233.586,16.279l0.472-3.087h2.726l-0.494,3.087    H233.586z"/>
    </g>
    <g>
      <path fill="#FFFFFF" d="M210.412,42.057l-0.011-0.032c0.512-0.042,0.975-0.16,1.387-0.352c1.309-0.612,1.963-1.598,1.963-2.955    c0-1.202-0.479-2.14-1.439-2.816c-0.769-0.541-1.863-0.811-3.285-0.811c-1.152,0-2.262,0.188-3.328,0.564l0.096,1.333    c1.052-0.419,2.094-0.629,3.125-0.629c0.448,0,0.864,0.058,1.248,0.171c1.265,0.378,1.898,1.113,1.898,2.208    c0,1.31-0.896,2.138-2.688,2.486c-0.213,0.043-0.372,0.071-0.479,0.085c-0.398,0.058-0.975,0.086-1.728,0.086v1.333    c0.1-0.008,0.182-0.011,0.245-0.011h0.214c0.952,0,1.686,0.075,2.197,0.224c1.521,0.441,2.283,1.319,2.283,2.635    c0,0.816-0.331,1.483-0.993,2c-0.661,0.515-1.479,0.772-2.453,0.772c-1.038,0-2.162-0.238-3.371-0.715l-0.063,1.451    c1.201,0.355,2.39,0.534,3.562,0.534c0.796,0,1.514-0.097,2.154-0.288c1.991-0.59,2.985-1.785,2.985-3.584    c0-1.002-0.321-1.854-0.97-2.555C212.315,42.492,211.464,42.113,210.412,42.057z"/>
    </g>
    <g/>
  </g>
  <g>
    <g/>
    <g>
      <path fill="#FFFFFF" d="M300.046,17.496v4.572c-1.071-0.078-2.057-0.326-2.935-0.74l-0.66-0.311l-0.199,2.767l0.394,0.11    c1.176,0.329,2.317,0.531,3.4,0.602v1.816h1.896v-1.865c1.174-0.188,2.131-0.606,2.849-1.245c0.941-0.822,1.419-1.939,1.419-3.321    c0-1.319-0.499-2.393-1.486-3.194c-0.571-0.457-1.451-0.896-2.683-1.34v-3.832l0.293,0.022c0.804,0.079,1.527,0.268,2.149,0.561    l0.64,0.302l0.261-2.59l-0.374-0.13c-0.972-0.337-1.97-0.527-2.971-0.566V7.296h-1.907v1.869    c-1.097,0.157-1.998,0.516-2.682,1.069c-0.932,0.743-1.404,1.783-1.404,3.089c0,0.64,0.145,1.216,0.428,1.706    C297.093,16.13,298.293,16.958,300.046,17.496z M303.524,20.052c0,0.673-0.177,1.565-1.582,1.918v-3.836    C303.005,18.626,303.524,19.258,303.524,20.052z M300.133,14.713c-0.449-0.21-0.684-0.358-0.811-0.458    c-0.395-0.297-0.579-0.662-0.579-1.147c0-0.248,0.047-0.451,0.14-0.604c0.206-0.338,0.625-0.613,1.25-0.821V14.713z"/>
    </g>
    <g>
      <path fill="#FFFFFF" d="M277.508,35.54l-2.4-0.448l-6.068,9.951v1.451h6.814v3.188h1.654v-3.188h1.919v-1.302h-1.919V35.54z     M275.853,37.683c0,0.17,0,0.419,0,0.746c0,0.335,0,0.588,0,0.758v6.005h-5.332c0.889-1.442,1.664-2.693,2.326-3.753    c1.234-1.977,2.236-3.538,3.006-4.684V37.683z"/>
    </g>
    <g/>
  </g>
  <g>
    <g/>
    <g/>
    <g/>
    <g>
      <path fill="#FFFFFF" d="M339.928,40.509c-0.554,0-1.181,0.1-1.877,0.299c0.057-0.626,0.089-1.095,0.096-1.408l0.042-3.008h6.133    v-1.301h-7.637l-0.096,7.115c0.917-0.278,1.759-0.416,2.526-0.416c1.061,0,1.938,0.248,2.636,0.745    c0.804,0.574,1.206,1.378,1.206,2.406c0,0.931-0.344,1.69-1.029,2.279c-0.687,0.589-1.562,0.884-2.629,0.884    c-0.86,0-1.785-0.203-2.773-0.607l-0.053,1.441c0.967,0.29,1.916,0.436,2.848,0.436c1.671,0,2.998-0.416,3.984-1.247    c0.986-0.831,1.478-1.929,1.478-3.292c0-1.293-0.444-2.336-1.334-3.133C342.559,40.905,341.386,40.509,339.928,40.509z"/>
    </g>
    <g>
      <polygon fill="#FFFFFF" points="361.233,23.995 370.569,7.521 368.735,7.521 359.4,23.995   "/>
    </g>
    <g>
      <path fill="#FFFFFF" d="M370.091,15.67c-1.153,0-2.05,0.362-2.663,1.077c-0.574,0.668-0.866,1.589-0.866,2.739    c0,1.181,0.311,2.128,0.924,2.813c0.619,0.694,1.488,1.046,2.584,1.046c1.057,0,1.917-0.348,2.558-1.036    c0.637-0.683,0.959-1.625,0.959-2.801C373.586,16.998,372.378,15.671,370.091,15.67z M370.07,21.772    c-0.752,0-1.752-0.233-1.752-2.244c0-2.057,1.023-2.294,1.794-2.294c0.733,0,1.709,0.238,1.709,2.294    C371.821,21.538,370.822,21.772,370.07,21.772z"/>
    </g>
    <g>
      <path fill="#FFFFFF" d="M362.805,14.814c0.629-0.686,0.947-1.626,0.947-2.794c0-2.518-1.204-3.848-3.485-3.848    c-1.16,0-2.06,0.363-2.672,1.078c-0.575,0.667-0.867,1.592-0.867,2.75c0,1.189,0.314,2.137,0.936,2.819    c0.628,0.69,1.504,1.04,2.604,1.04C361.316,15.858,362.17,15.507,362.805,14.814z M358.494,12.063    c0-2.086,1.024-2.328,1.795-2.328c0.733,0,1.708,0.239,1.708,2.307c0,2-0.999,2.231-1.751,2.231S358.494,14.044,358.494,12.063z"/>
    </g>
    <g/>
  </g>
  <g>
    <g/>
    <g>
      <polygon fill="#FFFFFF" points="429.571,9.712 432.348,14.707 435.104,14.707 431.035,7.297 428.118,7.297 424.05,14.707     426.794,14.707   "/>
    </g>
    <g>
      <path fill="#FFFFFF" d="M403.949,40.647c-1.604,0-2.771,0.627-3.503,1.878v-0.832c0-0.532,0.081-1.124,0.245-1.771    c0.163-0.646,0.357-1.169,0.585-1.567c0.768-1.323,1.885-1.984,3.355-1.984c0.831,0,1.657,0.178,2.48,0.533l0.202-1.387    c-0.981-0.284-1.908-0.426-2.783-0.426c-3.79,0-5.686,2.595-5.686,7.786c0,4.573,1.576,6.858,4.726,6.858    c1.33,0,2.414-0.432,3.253-1.296c0.839-0.863,1.259-1.981,1.259-3.354c0-1.288-0.387-2.354-1.161-3.201    C406.148,41.06,405.157,40.647,403.949,40.647z M405.652,47.442c-0.534,0.684-1.233,1.024-2.102,1.024    c-0.412,0-0.793-0.089-1.142-0.268c-0.562-0.276-0.996-0.715-1.302-1.312c-0.291-0.555-0.437-1.163-0.437-1.824    c0-0.875,0.252-1.606,0.757-2.196c0.541-0.634,1.248-0.949,2.123-0.949c0.412,0,0.793,0.086,1.141,0.256    c1.131,0.555,1.696,1.561,1.696,3.019C406.387,46.073,406.142,46.823,405.652,47.442z"/>
    </g>
    <g/>
  </g>
  <g>
    <g/>
    <g>
      <path fill="#FFFFFF" d="M465.126,36.392h5.863c0.221,0,0.404,0,0.554-0.001c0.448-0.001,0.789-0.001,1.023-0.001    c-0.477,0.853-0.987,1.903-1.534,3.153l-4.263,9.69h1.854l5.386-12.671h0.001V35.09h-8.885V36.392z"/>
    </g>
    <g>
      <path fill="#FFFFFF" d="M492.778,22.62c0.402,0,0.785-0.03,1.135-0.089c0.946-0.161,1.896-0.676,2.832-1.535l1.13,1.346h2.716    l-2.521-2.965c0.949-1.247,1.486-2.851,1.599-4.771l0.017-0.291h-2.064l-0.016,0.259c-0.067,1.14-0.358,2.243-0.865,3.284    l-2.77-3.359c2.02-1.054,3.042-2.335,3.042-3.813c0-0.933-0.351-1.705-1.04-2.293c-0.678-0.577-1.583-0.87-2.689-0.87    c-0.559,0-1.079,0.08-1.553,0.24c-1.518,0.531-2.286,1.565-2.286,3.075c0,0.278,0.043,0.575,0.127,0.884    c0.244,0.887,0.737,1.697,1.471,2.412c-0.141,0.061-0.267,0.116-0.377,0.166c-0.428,0.188-0.751,0.347-0.966,0.478    c-1.303,0.824-1.964,1.982-1.964,3.442c0,1.271,0.479,2.336,1.429,3.167C490.099,22.204,491.316,22.62,492.778,22.62z     M490.067,18.198c0-0.808,0.317-1.456,0.956-1.969c0.475-0.323,0.859-0.574,1.148-0.748l3.336,4.002    c-0.199,0.194-0.396,0.367-0.585,0.514c-0.681,0.528-1.376,0.785-2.124,0.785c-0.76,0-1.386-0.238-1.916-0.729    C490.333,19.556,490.067,18.949,490.067,18.198z M492.297,12.555c-0.469-0.66-0.706-1.224-0.706-1.676    c0-0.45,0.158-0.812,0.485-1.109c0.335-0.303,0.728-0.45,1.202-0.45c0.465,0,0.847,0.129,1.169,0.396    c0.334,0.274,0.496,0.62,0.496,1.057c0,0.434-0.169,0.838-0.52,1.237c-0.305,0.349-0.848,0.762-1.615,1.23    C492.609,12.987,492.439,12.759,492.297,12.555z"/>
    </g>
    <g/>
  </g>
  <g>
    <g/>
    <g>
      <path fill="#FFFFFF" d="M534.327,41.898c2.062-0.882,3.094-2.034,3.094-3.456c0-0.988-0.396-1.794-1.195-2.417    c-0.796-0.622-1.847-0.933-3.154-0.933c-0.698,0-1.319,0.081-1.868,0.245c-1.74,0.533-2.612,1.596-2.612,3.188    c0,0.818,0.28,1.515,0.843,2.09c0.604,0.628,1.466,1.058,2.581,1.293c-0.681,0.247-1.26,0.512-1.736,0.788    c-1.346,0.797-2.018,1.85-2.018,3.157c0,1.139,0.451,2.069,1.354,2.794c0.902,0.726,2.091,1.088,3.562,1.088    c0.72,0,1.369-0.096,1.953-0.288c0.853-0.27,1.526-0.724,2.024-1.359c0.498-0.637,0.746-1.399,0.746-2.288    C537.9,43.994,536.709,42.692,534.327,41.898z M531.265,40.105c-0.661-0.562-0.99-1.117-0.99-1.664    c0-0.312,0.074-0.604,0.226-0.875c0.469-0.868,1.304-1.301,2.505-1.301c0.362,0,0.711,0.053,1.046,0.16    c1.116,0.376,1.674,1.056,1.674,2.037c0,0.206-0.036,0.413-0.117,0.619c-0.199,0.525-0.651,1.092-1.354,1.695    c-0.078,0.064-0.125,0.104-0.141,0.118c-0.164,0.135-0.394,0.295-0.692,0.48C532.53,41.005,531.812,40.582,531.265,40.105z     M535.367,47.762c-0.561,0.469-1.268,0.704-2.128,0.704s-1.59-0.238-2.188-0.714c-0.648-0.52-0.971-1.205-0.971-2.059    c0-1.216,0.874-2.255,2.622-3.114c0.647,0.233,1.15,0.447,1.506,0.64c1.328,0.725,1.994,1.632,1.994,2.719    C536.204,46.685,535.924,47.293,535.367,47.762z"/>
    </g>
    <g>
      <polygon fill="#FFFFFF" points="556.436,14.452 557.781,15.428 559.493,12.854 561.229,15.43 562.592,14.416 560.665,11.988     563.628,11.126 563.111,9.541 560.168,10.617 560.302,7.521 558.622,7.521 558.725,10.617 555.809,9.539 555.304,11.131     558.295,11.999   "/>
    </g>
    <g/>
  </g>
  <g>
    <g/>
    <g>
      <path fill="#FFFFFF" d="M597.715,35.092c-1.287,0-2.35,0.431-3.184,1.295c-0.836,0.865-1.254,1.972-1.254,3.323    c0,1.336,0.389,2.421,1.168,3.253c0.778,0.832,1.783,1.249,3.012,1.249c0.727,0,1.332-0.114,1.814-0.342    c0.604-0.277,1.178-0.778,1.719-1.503c-0.033,0.519-0.068,0.963-0.109,1.333c-0.076,0.718-0.19,1.291-0.34,1.717    c-0.691,2.048-1.967,3.071-3.824,3.071c-0.812,0-1.639-0.182-2.479-0.545l-0.193,1.397c0.271,0.086,0.521,0.154,0.746,0.203    c0.576,0.142,1.217,0.213,1.92,0.213c3.848,0,5.771-2.641,5.771-7.925c0-1.913-0.312-3.435-0.939-4.565    C600.74,35.817,599.463,35.092,597.715,35.092z M599.901,41.981c-0.531,0.641-1.228,0.96-2.08,0.96    c-0.824,0-1.509-0.319-2.047-0.96c-0.533-0.618-0.8-1.403-0.8-2.356c0-0.89,0.248-1.64,0.746-2.25    c0.533-0.67,1.24-1.003,2.121-1.003c0.396,0,0.771,0.09,1.121,0.267c1.129,0.597,1.693,1.65,1.693,3.157    C600.656,40.655,600.406,41.384,599.901,41.981z"/>
    </g>
    <g>
      <path fill="#FFFFFF" d="M624.196,27.826h2.018l-0.217-0.405c-1.982-3.683-2.986-6.984-2.988-9.811    c0-2.805,0.978-6.063,2.904-9.683l0.215-0.404h-1.988l-0.079,0.13c-0.433,0.697-0.812,1.352-1.132,1.945    c-0.231,0.44-0.473,0.938-0.733,1.523c-0.978,2.239-1.474,4.422-1.474,6.489c0,3.188,1.142,6.583,3.394,10.09L624.196,27.826z"/>
    </g>
    <g/>
  </g>
  <g>
    <g/>
    <g>
      <path fill="#FFFFFF" d="M664.042,35.757c-0.688-0.444-1.442-0.666-2.261-0.666c-1.935,0-3.289,0.885-4.063,2.656    c-0.249,0.562-0.437,1.22-0.562,1.973c-0.122,0.712-0.185,1.582-0.185,2.614c0,1.904,0.249,3.466,0.747,4.682    c0.748,1.828,2.073,2.742,3.979,2.742c1.316,0,2.4-0.484,3.255-1.451c0.603-0.682,1.035-1.714,1.29-3.093    c0.136-0.733,0.202-1.622,0.202-2.667c0-2.105-0.285-3.776-0.854-5.014C665.249,36.794,664.733,36.202,664.042,35.757z     M664.011,46.878c-0.513,1.074-1.275,1.609-2.294,1.609c-0.931,0-1.648-0.451-2.154-1.354c-0.291-0.526-0.515-1.205-0.666-2.037    c-0.152-0.832-0.229-1.732-0.229-2.699c0-1.314,0.131-2.478,0.396-3.487c0.438-1.692,1.347-2.539,2.719-2.539    c0.953,0,1.692,0.555,2.219,1.664c0.498,1.053,0.746,2.514,0.746,4.385C664.747,44.368,664.502,45.854,664.011,46.878z"/>
    </g>
    <g>
      <path fill="#FFFFFF" d="M687.541,17.748c0,2.811-0.976,6.065-2.901,9.673l-0.216,0.404h1.99l0.08-0.133    c0.465-0.773,0.839-1.419,1.127-1.941c0.234-0.434,0.482-0.947,0.735-1.524c0.978-2.229,1.474-4.409,1.474-6.479    c0-3.181-1.143-6.579-3.396-10.1l-0.081-0.127h-2.02l0.219,0.405C686.536,11.607,687.541,14.911,687.541,17.748z"/>
    </g>
    <g/>
  </g>
  <g>
    <g/>
    <g/>
    <g>
      <path fill="#FFFFFF" d="M204.497,85.203c-0.241,0.819-0.361,1.233-0.361,1.24c-0.323,1.142-0.588,2.353-0.794,3.633    c-0.236-0.842-0.457-1.653-0.663-2.437l-2.883-11.044h-2.743l-2.117,8.528c-0.205,0.819-0.314,1.259-0.329,1.316    c-0.337,1.311-0.6,2.635-0.79,3.974c-0.103-0.542-0.197-1.024-0.284-1.449c-0.214-0.944-0.551-2.199-1.013-3.765l-2.553-8.605    h-1.872l4.479,14.555H195l2.438-9.686c0.184-0.805,0.318-1.409,0.406-1.812l0.549-2.612l0.26,1.203    c0.198,0.93,0.458,2.005,0.78,3.227l2.57,9.681h2.382l4.369-14.555h-1.742L204.497,85.203z"/>
    </g>
  </g>
  <g>
    <path fill="#FFFFFF" d="M792.141,96.926h-0.769c-1.909,0-2.864-1.021-2.864-3.062v-4.259c0-1.258-0.417-2.02-1.252-2.283v-1.107   c0.835-0.293,1.252-1.036,1.252-2.229v-4.479c0-1.134,0.3-1.921,0.899-2.36c0.285-0.212,0.597-0.354,0.934-0.428   c0.366-0.081,0.918-0.121,1.656-0.121h0.144v1.032c-0.85,0.015-1.418,0.159-1.707,0.434S790,78.878,790,79.683v4.413   c0,0.703-0.1,1.237-0.297,1.603c-0.196,0.366-0.602,0.722-1.207,1.065c0.594,0.366,0.991,0.735,1.196,1.108   c0.204,0.374,0.308,0.91,0.308,1.613v4.336c0,0.812,0.146,1.363,0.438,1.652c0.293,0.289,0.86,0.434,1.701,0.434L792.141,96.926   L792.141,96.926z"/>
  </g>
  <g>
    <path fill="#FFFFFF" d="M856.668,87.321c-0.843,0.293-1.264,1.039-1.264,2.239v4.457c0,1.143-0.3,1.928-0.899,2.36   c-0.301,0.212-0.606,0.354-0.923,0.428c-0.357,0.08-0.914,0.121-1.668,0.121h-0.132v-1.021c0.834-0.015,1.396-0.16,1.689-0.438   c0.292-0.278,0.438-0.82,0.438-1.625V89.44c0-0.703,0.102-1.232,0.303-1.592c0.2-0.358,0.604-0.717,1.214-1.076   c-0.594-0.366-0.994-0.73-1.202-1.098c-0.209-0.366-0.312-0.907-0.312-1.625v-4.336c0-0.827-0.146-1.383-0.435-1.668   c-0.288-0.286-0.854-0.428-1.694-0.428v-1.021h0.77c1.901,0,2.854,1.021,2.854,3.062v4.28c0,1.251,0.421,2.009,1.263,2.272v1.111   H856.668z"/>
  </g>
  <g>
    <path fill="#FFFFFF" d="M856.09,125.41h-3.729v-1.021h2.237V106.09h-2.237v-1.01h3.729V125.41z"/>
  </g>
  <g>
    <g>
      <path fill="#FFFFFF" d="M645.929,76.597c-2.211,0-3.903,0.622-5.082,1.866c-1.368,1.449-2.053,3.363-2.053,5.741    c0,1.588,0.381,3.048,1.142,4.38c1.192,2.1,3.17,3.149,5.928,3.149c2.308,0,4.056-0.721,5.248-2.163    c1.164-1.411,1.744-3.209,1.744-5.39c0-2.32-0.627-4.164-1.882-5.532C649.718,77.281,648.036,76.597,645.929,76.597z     M650.628,86.739c-0.367,1.135-0.953,2.031-1.759,2.689c-0.854,0.71-1.864,1.065-3.028,1.065c-1.543,0-2.795-0.598-3.754-1.79    c-0.96-1.193-1.438-2.708-1.438-4.544c0-1.903,0.477-3.431,1.432-4.583c0.955-1.152,2.229-1.729,3.826-1.729    c1.508,0,2.731,0.596,3.678,1.789c0.943,1.193,1.416,2.722,1.416,4.588C651,85.133,650.875,85.971,650.628,86.739z"/>
    </g>
    <g/>
    <g/>
    <g/>
  </g>
  <g>
    <g>
      <path fill="#FFFFFF" d="M713.758,77.573c-0.63-0.476-1.453-0.774-2.471-0.899c-0.477-0.051-1.251-0.077-2.326-0.077h-2.756v14.555    h1.701v-6.004h1.404c1.552,0,2.687-0.143,3.402-0.428c1.689-0.673,2.536-1.961,2.536-3.864    C715.25,79.443,714.753,78.349,713.758,77.573z M712.034,83.314c-0.525,0.3-1.44,0.45-2.744,0.45h-1.383v-5.785h1.119    c0.433,0,0.868,0.021,1.312,0.062c0.441,0.04,0.768,0.09,0.971,0.147c1.397,0.396,2.098,1.285,2.098,2.667    C713.406,81.975,712.949,82.795,712.034,83.314z"/>
    </g>
    <g/>
    <g/>
  </g>
  <g>
    <g/>
    <g>
      <path fill="#FFFFFF" d="M454.193,82.19c-0.117,0.175-0.189,0.284-0.221,0.328c-0.197,0.277-0.388,0.623-0.571,1.038    c-0.161-0.359-0.438-0.838-0.835-1.438l-3.648-5.521h-2.122l5.74,8.408v6.146h1.689v-6.213l5.653-8.342h-2.002L454.193,82.19z"/>
    </g>
    <g/>
  </g>
  <g>
    <path fill="#FFFFFF" d="M791.565,125.41h-3.732v-20.33h3.732v1.031h-2.24v18.3h2.24V125.41z"/>
    <path fill="#FFFFFF" d="M791.841,125.685h-4.283v-20.88h4.283v1.581h-2.24v17.75h2.24V125.685z M788.108,125.135h3.182v-0.449   h-2.24v-18.85h2.24v-0.481h-3.182V125.135z"/>
  </g>
  <g>
    <g/>
    <g/>
    <g>
      <path fill="#FFFFFF" d="M286.457,147.153c-0.461-0.125-0.991-0.216-1.591-0.273c-0.542-0.051-1.325-0.077-2.351-0.077h-2.887    v14.556h3.216c0.439,0,0.846-0.011,1.219-0.032c0.739-0.029,1.388-0.109,1.943-0.241c1.88-0.417,3.337-1.336,4.368-2.755    c0.879-1.2,1.316-2.599,1.316-4.193c0-1.646-0.472-3.106-1.416-4.38C289.318,148.452,288.044,147.585,286.457,147.153z     M287.928,158.547c-0.798,0.695-1.786,1.131-2.964,1.307c-0.549,0.081-1.313,0.121-2.295,0.121h-1.339v-11.79h1.36    c0.812,0,1.489,0.029,2.03,0.088c1.171,0.14,2.148,0.517,2.932,1.131c1.456,1.164,2.186,2.72,2.186,4.665    C289.838,155.957,289.202,157.449,287.928,158.547z"/>
    </g>
  </g>
  <g>
    <g/>
    <g>
      <polygon fill="#FFFFFF" points="344.279,161.357 345.98,161.357 345.98,154.497 351.579,154.497 351.579,153.113 345.98,153.113     345.98,148.185 351.798,148.185 351.798,146.802 344.279,146.802   "/>
    </g>
  </g>
  <g>
    <g/>
    <g/>
    <g>
      <polygon fill="#FFFFFF" points="482.498,153.091 474.803,153.091 474.803,146.802 473.101,146.802 473.101,161.357     474.803,161.357 474.803,154.475 482.498,154.475 482.498,161.357 484.199,161.357 484.199,146.802 482.498,146.802   "/>
    </g>
  </g>
  <g>
    <g>
      <rect x="748.686" y="161.962" fill="#FFFFFF" width="1.966" height="1.965"/>
    </g>
    <g>
      <rect x="748.686" y="153.377" fill="#FFFFFF" width="1.966" height="1.965"/>
    </g>
    <g>
      <polygon fill="#FFFFFF" points="749.317,188.436 748.086,193.287 749.559,193.287 751.248,188.436   "/>
    </g>
    <g>
      <rect x="749.162" y="179.852" fill="#FFFFFF" width="1.978" height="1.965"/>
    </g>
  </g>
  <g>
    <g>
      <path fill="#FFFFFF" d="M138.062,84.223c0-2.151-0.553-3.917-1.658-5.3c-1.236-1.551-3.021-2.326-5.356-2.326    c-2.137,0-3.846,0.684-5.126,2.053C124.64,80.018,124,81.862,124,84.182c0,2.305,0.646,4.14,1.938,5.505    c1.292,1.365,3.009,2.047,5.153,2.047c0.073,0,0.15,0,0.23,0l0.264-0.011c0.22-0.015,0.465-0.033,0.734-0.055l2.854,2.667h2.154    l-3.411-3.068C136.681,89.958,138.062,87.61,138.062,84.223z M134.066,89.439c-0.855,0.703-1.87,1.055-3.041,1.055    c-1.529,0-2.776-0.604-3.742-1.812c-0.952-1.186-1.428-2.715-1.428-4.588c0-1.866,0.479-3.374,1.434-4.521    c0.955-1.147,2.229-1.723,3.824-1.723c1.509,0,2.733,0.596,3.678,1.789c0.943,1.193,1.417,2.722,1.417,4.588    c0,0.915-0.125,1.756-0.374,2.525C135.468,87.885,134.878,88.781,134.066,89.439z"/>
    </g>
    <g/>
    <g/>
    <g/>
    <g/>
  </g>
  <g>
    <g>
      <rect x="577.803" y="76.597" fill="#FFFFFF" width="1.702" height="14.555"/>
    </g>
    <g/>
    <g/>
  </g>
  <g>
    <g/>
    <g>
      <path fill="#FFFFFF" d="M217.984,153.64l-0.812-0.406c-0.483-0.241-0.875-0.461-1.175-0.658c-0.915-0.586-1.372-1.285-1.372-2.098    c0-0.703,0.275-1.261,0.829-1.674c0.552-0.413,1.25-0.62,2.091-0.62c0.754,0,1.628,0.176,2.624,0.527l0.208-1.438    c-1.032-0.313-2.045-0.472-3.041-0.472c-1.361,0-2.452,0.354-3.271,1.063c-0.819,0.711-1.229,1.646-1.229,2.811    c0,0.878,0.245,1.614,0.734,2.207c0.49,0.593,1.321,1.164,2.492,1.712l0.823,0.384c1.632,0.761,2.448,1.702,2.448,2.821    c0,0.841-0.305,1.513-0.911,2.014c-0.607,0.502-1.405,0.752-2.394,0.752c-0.812,0-1.73-0.227-2.755-0.681l-0.176,1.526    c0.996,0.351,2.064,0.525,3.206,0.525c1.478,0,2.662-0.395,3.551-1.186c0.89-0.79,1.334-1.826,1.334-3.106    c0-0.899-0.227-1.639-0.681-2.217C220.053,154.848,219.214,154.255,217.984,153.64z"/>
    </g>
    <g/>
  </g>
  <g>
    <g>
      <polygon fill="#FFFFFF" points="610.791,146.802 608.518,146.802 603.348,152.169 601.778,153.706 601.778,146.802     600.076,146.802 600.076,161.357 601.778,161.357 601.778,155.682 601.778,154.134 603.5,155.605 608.902,161.357     611.386,161.357 603.922,153.696   "/>
    </g>
    <g/>
    <g/>
  </g>
  <g>
    <g>
      <polygon fill="#FFFFFF" points="384.816,77.979 389.614,77.979 389.614,91.152 391.304,91.152 391.304,77.979 396.001,77.979     396.001,76.597 384.816,76.597   "/>
    </g>
    <g/>
    <g/>
  </g>
  <g>
    <g/>
    <g>
      <path fill="#FFFFFF" d="M325.167,85.247c-0.336-0.542-1.015-1.032-2.03-1.472c0.417-0.072,0.765-0.143,1.043-0.208    c0.688-0.168,1.196-0.388,1.525-0.658c0.769-0.63,1.152-1.489,1.152-2.58c0-1.208-0.458-2.159-1.373-2.854    c-0.585-0.438-1.346-0.709-2.282-0.812c-0.461-0.044-1.123-0.066-1.986-0.066h-3.403v14.555h1.702v-6.674h1.448    c0.899,0,1.543,0.144,1.927,0.428c0.385,0.285,0.785,0.911,1.202,1.878l1.877,4.368h1.987l-2.404-5.147    C325.398,85.674,325.269,85.422,325.167,85.247z M321.062,83.073h-1.548V77.98h1.767c0.995,0,1.738,0.088,2.229,0.265    c1.062,0.38,1.592,1.138,1.592,2.271c0,0.535-0.143,0.999-0.428,1.395C324.11,82.685,322.906,83.073,321.062,83.073z"/>
    </g>
    <g/>
  </g>
  <g>
    <g/>
    <g>
      <path fill="#FFFFFF" d="M155.115,146.802l-6.191,14.556h1.837l1.558-3.798h7.561l1.577,3.798h1.926l-6.301-14.556H155.115z     M159.319,156.176h-6.521l1.791-4.435c0.271-0.674,0.469-1.168,0.594-1.481c0.45-1.113,0.751-1.85,0.903-2.208    c0.447,1.288,0.905,2.5,1.375,3.634L159.319,156.176z"/>
    </g>
    <g/>
  </g>
  <g/>
  <g>
    <g/>
    <g/>
    <g>
      <polygon fill="#FFFFFF" points="801.168,180.214 802.297,180.214 802.615,174.648 800.85,174.648   "/>
      <path fill="#FFFFFF" d="M802.533,180.464h-1.602l-0.347-6.065h2.295L802.533,180.464z M801.404,179.964h0.656l0.29-5.065h-1.236    L801.404,179.964z"/>
    </g>
    <g>
      <polygon fill="#FFFFFF" points="826.323,146.355 824.557,146.355 824.875,151.92 826.004,151.92   "/>
      <path fill="#FFFFFF" d="M826.24,152.17h-1.602l-0.347-6.065h2.296L826.24,152.17z M825.111,151.67h0.656l0.291-5.065h-1.237    L825.111,151.67z"/>
    </g>
    <g>
      <polygon fill="#FFFFFF" points="828.561,146.355 828.879,151.92 830.008,151.92 830.326,146.355   "/>
      <path fill="#FFFFFF" d="M830.244,152.17h-1.602l-0.347-6.065h2.295L830.244,152.17z M829.115,151.67h0.656l0.29-5.065h-1.236    L829.115,151.67z"/>
    </g>
    <g/>
  </g>
  <g>
    <g/>
    <g/>
    <g>
      <path fill="#FFFFFF" d="M174.867,228.675c0.738-1.083,1.303-1.889,1.689-2.415l6.389-9.188v-1.689h-9.604v1.383h6.026    c0.116,0,0.791-0.021,2.021-0.064c-0.381,0.396-0.776,0.865-1.186,1.415c-0.234,0.309-0.594,0.812-1.076,1.517l-6.061,8.771v1.535    h10.022v-1.383h-6.652C176.078,228.555,175.554,228.594,174.867,228.675z"/>
    </g>
  </g>
  <g>
    <g/>
    <g/>
    <g/>
    <g>
      <polygon fill="#FFFFFF" points="248.88,215.382 246.939,215.382 242.866,221.21 238.772,215.382 236.733,215.382 241.679,222.29     236.302,229.938 238.328,229.938 242.711,223.359 247.282,229.938 249.453,229.938 244,222.291   "/>
    </g>
  </g>
  <g>
    <g/>
    <g/>
    <g>
      <path fill="#FFFFFF" d="M374.329,225.127c-0.14,0.381-0.273,0.771-0.404,1.174l-0.785,2.522c-0.229-0.7-0.466-1.392-0.709-2.067    l-0.397-1.167c-0.029-0.065-0.06-0.144-0.09-0.229l-3.708-9.978h-1.881l5.565,14.556h2.305l5.5-14.556h-1.784L374.329,225.127z"/>
    </g>
  </g>
  <g>
    <g/>
    <g/>
    <g>
      <path fill="#FFFFFF" d="M439.368,223.417c-0.775-0.526-1.497-0.808-2.163-0.835c0.483-0.116,1.092-0.438,1.822-0.966    c0.85-0.607,1.272-1.479,1.272-2.612c0-1.311-0.594-2.311-1.777-2.997c-0.433-0.248-0.896-0.415-1.395-0.499    s-1.313-0.126-2.448-0.126h-3.337v14.556h4.051c0.438,0,0.83-0.012,1.175-0.033c0.658-0.043,1.208-0.139,1.646-0.284    c0.77-0.265,1.384-0.708,1.845-1.333c0.461-0.626,0.69-1.346,0.69-2.157C440.751,224.943,440.29,224.04,439.368,223.417z     M433.045,216.766h1.316c1.187,0,1.994,0.068,2.426,0.207c1.216,0.389,1.822,1.157,1.822,2.307c0,1.068-0.521,1.812-1.56,2.229    c-0.433,0.176-1.187,0.264-2.263,0.264h-1.744L433.045,216.766L433.045,216.766z M437.513,228.17    c-0.357,0.168-0.702,0.271-1.031,0.307c-0.365,0.053-0.886,0.078-1.56,0.078h-1.877v-5.479h1.339c1.224,0,2.079,0.08,2.568,0.24    c1.354,0.447,2.03,1.316,2.03,2.613C438.984,226.971,438.493,227.716,437.513,228.17z"/>
    </g>
  </g>
  <g>
    <g/>
    <g/>
    <g>
      <path fill="#FFFFFF" d="M505.971,228.781l-7.543-13.398l-2.303,0.012v14.557h1.7v-9.848c-0.017-1.543-0.028-2.623-0.043-3.237    l7.463,13.085c0.242,0.008,0.461,0.008,0.658,0c0.515,0,0.896,0,1.153,0c0.188,0,0.396,0,0.613,0v-14.566h-1.701L505.971,228.781    L505.971,228.781z"/>
    </g>
  </g>
  <g>
    <g/>
    <g>
      <path fill="#FFFFFF" d="M522.315,84.335c0,0.973-0.019,1.661-0.056,2.062c-0.037,0.439-0.125,0.856-0.265,1.251    c-0.563,1.61-1.721,2.415-3.469,2.415c-1.617,0-2.757-0.647-3.414-1.942c-0.22-0.439-0.367-0.942-0.444-1.51    c-0.076-0.566-0.115-1.362-0.115-2.388v-7.629h-1.701v7.936c0,1.771,0.191,3.093,0.572,3.964c0.854,1.961,2.535,2.941,5.037,2.941    c2.151,0,3.715-0.765,4.688-2.294c0.321-0.505,0.547-1.063,0.676-1.679c0.127-0.615,0.19-1.493,0.19-2.635v-8.232h-1.7V84.335    L522.315,84.335z"/>
    </g>
    <g/>
  </g>
  <g>
    <g/>
    <g/>
    <g>
      <path fill="#FFFFFF" d="M569.203,222.725l-0.67,1.789c-0.199,0.512-0.378,0.989-0.533,1.437c-0.293,0.851-0.569,1.756-0.834,2.716    c-0.139-0.674-0.247-1.168-0.327-1.482c-0.313-0.973-0.562-1.701-0.746-2.185l-3.761-9.615h-3.158v14.556h1.689v-8.936    c0-0.197,0-0.486,0-0.867c0-0.388,0-0.681,0-0.879v-2.887l5.412,13.566h1.769l2.758-7.146l0.191-0.496    c0.082-0.204,0.16-0.405,0.233-0.604c0.052-0.146,0.145-0.383,0.275-0.711l1.754-4.49l0.329-0.022l-0.021,2.042    c0,0.373,0,0.655,0,0.846v0.847c-0.029,0.276-0.044,0.532-0.044,0.769v8.969h1.689v-14.556h-3.207L569.203,222.725z"/>
    </g>
  </g>
  <g>
    <g>
      <polygon fill="#FFFFFF" points="630.591,263.252 632.041,263.252 633.752,258.398 631.821,258.398   "/>
    </g>
    <g/>
    <g/>
    <g>
      <polygon fill="#FFFFFF" points="659.748,219.699 650.461,224.188 650.461,225.637 659.748,230.105 659.748,228.594     651.878,224.906 659.748,221.234   "/>
    </g>
  </g>
  <g>
    <g/>
    <g>
      <rect x="695.119" y="258.398" fill="#FFFFFF" width="1.966" height="1.965"/>
    </g>
    <g/>
    <g>
      <polygon fill="#FFFFFF" points="715.582,219.708 715.582,221.218 723.462,224.887 715.582,228.582 715.582,230.092     724.868,225.625 724.868,224.175   "/>
    </g>
  </g>
  <g>
    <g>
      <polygon fill="#FFFFFF" points="255.262,84.225 261.014,84.225 261.014,82.842 255.262,82.842 255.262,77.979 261.464,77.979     261.464,76.596 253.561,76.596 253.561,91.151 261.64,91.151 261.64,89.769 255.262,89.769   "/>
    </g>
    <g/>
    <g/>
    <g/>
  </g>
  <g>
    <g>
      <path fill="#FFFFFF" d="M414.392,155.078h3.217v4.72c-0.257,0.081-0.482,0.146-0.681,0.198c-0.505,0.132-1.028,0.196-1.57,0.196    c-1.896,0-3.425-0.562-4.588-1.685c-1.164-1.124-1.745-2.596-1.745-4.418c0-1.742,0.583-3.161,1.75-4.259    c1.168-1.099,2.666-1.647,4.495-1.647c1.325,0,2.536,0.278,3.634,0.834l0.109-1.548c-1.171-0.446-2.462-0.669-3.875-0.669    c-2.43,0-4.365,0.659-5.807,1.976c-1.441,1.317-2.162,3.081-2.162,5.291c0,2.312,0.723,4.143,2.168,5.489    c1.445,1.346,3.399,2.021,5.867,2.021c1.44,0,2.807-0.213,4.095-0.638v-7.245h-4.907V155.078z"/>
    </g>
    <g/>
    <g/>
  </g>
  <g>
    <g/>
    <g>
      <path fill="#FFFFFF" d="M541.075,156.253c0,0.395-0.004,0.721-0.013,0.977c-0.015,0.629-0.091,1.123-0.229,1.481    c-0.373,0.98-1.108,1.471-2.206,1.471c-0.477,0-0.927-0.073-1.352-0.22v1.372c0.22,0.044,0.405,0.081,0.562,0.109    c0.388,0.073,0.757,0.109,1.107,0.109c1.625,0,2.751-0.56,3.381-1.68c0.205-0.365,0.329-0.706,0.373-1.021    c0.052-0.357,0.077-1.046,0.077-2.063v-9.989h-1.701V156.253L541.075,156.253z"/>
    </g>
    <g/>
  </g>
  <g>
    <g>
      <path fill="#FFFFFF" d="M309.179,228.688c-1.734,0-3.169-0.574-4.303-1.72c-1.136-1.146-1.701-2.585-1.701-4.319    c0-1.732,0.552-3.146,1.657-4.241c1.104-1.095,2.521-1.642,4.248-1.642c1.01,0,1.989,0.246,2.941,0.735l0.131-1.526    c-0.869-0.395-1.932-0.593-3.183-0.593c-2.269,0-4.111,0.679-5.527,2.036c-1.416,1.355-2.124,3.116-2.124,5.273    c0,2.562,0.907,4.541,2.724,5.938c1.316,1.018,3.044,1.525,5.181,1.525c0.308,0,0.593-0.008,0.856-0.021    c0.681-0.035,1.427-0.179,2.238-0.428l-0.121-1.604C311.159,228.493,310.153,228.688,309.179,228.688z"/>
    </g>
    <g/>
    <g/>
  </g>
  <g>
    <g>
      <polygon fill="#FFFFFF" points="668.502,146.802 666.801,146.802 666.801,161.357 674.836,161.357 674.836,159.975     668.502,159.975   "/>
    </g>
    <g/>
    <g/>
  </g>
  <g>
    <g>
      <path fill="#FFFFFF" d="M770.285,220.961c0.353,0,0.646-0.141,0.879-0.417c0.212-0.249,0.318-0.522,0.318-0.823    c0-0.3-0.109-0.56-0.33-0.779c-0.22-0.219-0.509-0.328-0.867-0.328c-0.233,0-0.453,0.056-0.657,0.164    c-0.009-0.06-0.013-0.12-0.013-0.188c0-0.818,0.256-1.49,0.771-2.014c0.513-0.523,1.179-0.785,1.998-0.785    c1.119,0,1.979,0.357,2.578,1.074c0.521,0.615,0.778,1.398,0.778,2.351c0,1.068-0.349,1.97-1.041,2.7    c-0.646,0.593-1.285,1.188-1.922,1.789c-0.695,0.791-1.035,1.785-1.021,2.984l1.504-0.012c0.017-0.986,0.373-1.857,1.076-2.611    c0.651-0.623,1.299-1.248,1.942-1.877c0.694-0.818,1.043-1.812,1.043-2.976c0-1.383-0.438-2.507-1.317-3.37    c-0.923-0.893-2.158-1.339-3.709-1.339c-1.076,0-2.043,0.377-2.897,1.13c-0.894,0.783-1.341,1.702-1.341,2.756    c0,0.791,0.218,1.42,0.647,1.889C769.108,220.734,769.635,220.961,770.285,220.961z"/>
      <path fill="#FFFFFF" d="M771.509,226.941l-0.003-0.249c-0.015-1.258,0.351-2.318,1.084-3.152c0.653-0.619,1.294-1.215,1.94-1.809    c0.633-0.668,0.96-1.519,0.96-2.516c0-0.901-0.235-1.617-0.719-2.189c-0.555-0.663-1.335-0.985-2.388-0.985    c-0.756,0-1.352,0.232-1.819,0.71c-0.435,0.441-0.662,0.987-0.695,1.665c0.135-0.035,0.273-0.053,0.416-0.053    c0.425,0,0.776,0.135,1.044,0.401s0.403,0.588,0.403,0.956c0,0.359-0.127,0.69-0.378,0.985c-0.283,0.335-0.643,0.505-1.069,0.505    c-0.722,0-1.316-0.258-1.768-0.766c-0.471-0.514-0.711-1.206-0.711-2.055c0-1.124,0.479-2.114,1.426-2.944    c0.897-0.79,1.928-1.191,3.062-1.191c1.609,0,2.916,0.474,3.883,1.409c0.925,0.909,1.394,2.103,1.394,3.55    c0,1.22-0.371,2.275-1.103,3.138c-0.66,0.646-1.308,1.271-1.96,1.896c-0.653,0.701-0.983,1.501-0.999,2.435l-0.004,0.244    L771.509,226.941z M772.384,215.541c1.193,0,2.125,0.392,2.77,1.164c0.555,0.655,0.837,1.501,0.837,2.511    c0,1.129-0.373,2.096-1.109,2.872c-0.657,0.604-1.296,1.198-1.932,1.799c-0.586,0.669-0.906,1.53-0.94,2.551l1.012-0.008    c0.069-0.95,0.449-1.802,1.133-2.534c0.66-0.632,1.308-1.257,1.95-1.885c0.637-0.752,0.968-1.699,0.968-2.797    c0-1.308-0.418-2.382-1.242-3.191c-0.869-0.841-2.059-1.268-3.534-1.268c-1.009,0-1.929,0.359-2.732,1.067    c-0.845,0.741-1.256,1.581-1.256,2.568c0,0.72,0.195,1.299,0.582,1.72c0.359,0.405,0.815,0.601,1.396,0.601    c0.276,0,0.501-0.107,0.688-0.328c0.175-0.205,0.26-0.422,0.26-0.662c0-0.233-0.084-0.431-0.257-0.603    c-0.172-0.171-0.398-0.255-0.69-0.255c-0.189,0-0.371,0.045-0.54,0.135l-0.312,0.166l-0.052-0.351    c-0.011-0.07-0.016-0.144-0.016-0.224c0-0.884,0.283-1.62,0.842-2.188C770.767,215.83,771.499,215.541,772.384,215.541z"/>
    </g>
    <g>
      <rect x="771.604" y="228.975" fill="#FFFFFF" width="1.845" height="1.898"/>
      <path fill="#FFFFFF" d="M773.698,231.123h-2.345v-2.398h2.345V231.123z M771.854,230.623h1.345v-1.398h-1.345V230.623z"/>
    </g>
    <g>
      <polygon fill="#FFFFFF" points="768.348,264.372 769.655,264.372 777.031,244.042 775.77,244.042   "/>
      <path fill="#FFFFFF" d="M769.83,264.622h-1.84l7.604-20.83h1.793L769.83,264.622z M768.705,264.122h0.775l7.194-19.83h-0.73    L768.705,264.122z"/>
    </g>
  </g>
  <g>
    <g>
      <g>
        <path fill="#FFFFFF" d="M222.362,314.519h-1.925l-1.578-3.798h-7.561l-1.556,3.798h-1.838l6.191-14.555h1.965L222.362,314.519z      M218.301,309.338l-1.858-4.49c-0.469-1.135-0.927-2.346-1.375-3.634c-0.151,0.357-0.454,1.095-0.902,2.208     c-0.125,0.313-0.323,0.81-0.595,1.48l-1.791,4.436H218.301L218.301,309.338z"/>
      </g>
    </g>
    <g>
      <g>
        <path fill="#FFFFFF" d="M228.441,314.519h-1.613v-15.752h1.613V314.519z"/>
      </g>
    </g>
    <g>
      <g>
        <path fill="#FFFFFF" d="M239.888,314.407c-0.586,0.17-1.142,0.255-1.669,0.255c-1.537,0-2.484-0.594-2.843-1.779     c-0.104-0.337-0.168-0.816-0.198-1.439c-0.015-0.313-0.022-0.688-0.022-1.121v-5.197h-2.535v-1.152h2.535v-2.534l1.614-0.55     v3.084h2.898v1.152h-2.898v4.584c0,1.113,0.037,1.852,0.11,2.21c0.197,0.974,0.831,1.461,1.898,1.461     c0.352,0,0.722-0.08,1.109-0.241L239.888,314.407L239.888,314.407z"/>
      </g>
    </g>
  </g>
  <g>
    <g>
      <g>
        <g>
          <polygon fill="#FFFFFF" points="96.218,85.596 68.057,85.596 76.054,77.74 75.191,76.878 66.583,85.344 65.722,86.206       66.583,87.068 75.623,95.83 76.485,94.967 68.057,86.816 96.218,86.816     "/>
        </g>
        <g>
          <path fill="#FFFFFF" d="M75.629,96.531L65.015,86.206l1.215-1.217l8.964-8.815l1.57,1.569l-7.485,7.353h27.438v2.22H69.293      l7.904,7.646L75.629,96.531z M66.429,86.206l0.508,0.509l8.681,8.413l0.154-0.155l-8.952-8.657h28.897v-0.22H66.834l8.51-8.359      l-0.155-0.154L66.429,86.206z"/>
        </g>
      </g>
      <g>
        <g>
          <rect x="64.439" y="76.878" fill="#FFFFFF" width="1.221" height="18.952"/>
        </g>
        <g>
          <path fill="#FFFFFF" d="M66.159,96.33h-2.221V76.378h2.221V96.33z M64.939,95.33h0.221V77.378h-0.221V95.33z"/>
        </g>
      </g>
    </g>
    <g>
      <g>
        <g>
          <polygon fill="#FFFFFF" points="64.439,109.484 92.6,109.484 84.603,101.627 85.465,100.765 94.073,109.231 94.935,110.094       94.073,110.956 85.034,119.718 84.172,118.855 92.6,110.704 64.439,110.704     "/>
        </g>
        <g>
          <path fill="#FFFFFF" d="M85.028,120.419l-1.568-1.571l7.904-7.645H63.939v-2.221h27.438l-7.485-7.354l1.57-1.569l10.179,10.033      l-1.215,1.215L85.028,120.419z M84.885,118.861l0.155,0.155l9.188-8.922l-0.508-0.509l-8.251-8.116l-0.155,0.155l8.511,8.358      H64.939v0.221h28.897L84.885,118.861z"/>
        </g>
      </g>
      <g>
        <g>
          <rect x="94.997" y="100.765" fill="#FFFFFF" width="1.22" height="18.953"/>
        </g>
        <g>
          <path fill="#FFFFFF" d="M96.717,120.218h-2.22v-19.953h2.22V120.218z M95.497,119.218h0.22v-17.953h-0.22V119.218z"/>
        </g>
      </g>
    </g>
    <g>
      <g>
        <path fill="#FFFFFF" d="M25.258,95.338H20.56v13.172h-1.69V95.338h-4.797v-1.383h11.186L25.258,95.338L25.258,95.338z"/>
      </g>
    </g>
    <g>
      <g>
        <path fill="#FFFFFF" d="M37.979,108.368h-1.427c-0.007-0.146-0.011-0.268-0.011-0.362V107.6l0.021-0.482     c0.007-0.168,0.02-0.443,0.033-0.824c-0.562,0.954-1.171,1.581-1.822,1.879c-0.489,0.226-1.195,0.339-2.119,0.339     c-1.104,0-1.98-0.281-2.629-0.844c-0.647-0.563-0.972-1.309-0.972-2.236c0-1.278,0.645-2.203,1.932-2.771     c0.938-0.409,2.138-0.614,3.602-0.614c0.366,0,0.75,0.011,1.151,0.033l0.604,0.044c-0.029-2.145-1.018-3.217-2.964-3.217     c-1.054,0-2.067,0.305-3.041,0.911l-0.088-1.285c1.09-0.613,2.243-0.922,3.458-0.922c2.151,0,3.465,0.806,3.94,2.415     c0.11,0.396,0.18,0.882,0.208,1.46c0.016,0.308,0.022,0.666,0.022,1.076v2.294C37.88,106.443,37.913,107.614,37.979,108.368z      M36.387,103.198l-0.396-0.044c-0.352-0.028-0.662-0.044-0.934-0.044c-1.383,0-2.43,0.18-3.139,0.537     c-0.761,0.395-1.143,0.981-1.143,1.764c0,0.89,0.473,1.484,1.416,1.784c0.278,0.096,0.582,0.143,0.911,0.143     c0.731,0,1.374-0.188,1.926-0.563c0.554-0.376,0.942-0.902,1.17-1.582c0.08-0.256,0.136-0.635,0.164-1.139     C36.38,103.811,36.387,103.526,36.387,103.198z"/>
      </g>
    </g>
    <g>
      <g>
        <path fill="#FFFFFF" d="M53.871,102.983c0,1.696-0.414,3.042-1.24,4.036c-0.827,0.995-1.928,1.492-3.304,1.492     c-0.915,0-1.65-0.146-2.206-0.437c-0.703-0.364-1.3-1.006-1.79-1.924v2.218h-1.526V92.616h1.614v5.587     c0,0.849-0.044,1.492-0.132,1.932c0.365-0.893,0.937-1.551,1.712-1.976c0.65-0.366,1.441-0.55,2.371-0.55     c1.36,0,2.451,0.486,3.271,1.458C53.461,100.042,53.871,101.346,53.871,102.983z M52.148,103.071c0-1.206-0.293-2.2-0.88-2.986     c-0.586-0.785-1.355-1.179-2.309-1.179c-1.599,0-2.68,0.841-3.244,2.521c-0.176,0.512-0.264,1.067-0.264,1.666     c0,1.162,0.324,2.142,0.973,2.938c0.648,0.798,1.464,1.195,2.447,1.195c0.739,0,1.385-0.248,1.935-0.745     c0.505-0.453,0.876-1.045,1.11-1.775C52.071,104.201,52.148,103.656,52.148,103.071z"/>
      </g>
    </g>
  </g>
  <g>
    <g>
      <g>
        <path fill="#FFFFFF" d="M20.22,175.368c-0.812,0.249-1.56,0.392-2.239,0.429c-0.264,0.016-0.55,0.021-0.855,0.021     c-2.138,0-3.864-0.508-5.183-1.524c-1.813-1.397-2.722-3.377-2.722-5.938c0-2.159,0.708-3.917,2.124-5.273     c1.416-1.357,3.258-2.036,5.526-2.036c1.252,0,2.312,0.197,3.184,0.593l-0.132,1.525c-0.951-0.49-1.932-0.735-2.941-0.735     c-1.728,0-3.144,0.547-4.248,1.641c-1.104,1.096-1.657,2.51-1.657,4.243c0,1.734,0.566,3.174,1.701,4.319     c1.135,1.145,2.568,1.719,4.304,1.719c0.973,0,1.979-0.193,3.019-0.582L20.22,175.368z"/>
      </g>
    </g>
    <g>
      <g>
        <path fill="#FFFFFF" d="M33.357,175.709H31.93c-0.008-0.146-0.012-0.27-0.012-0.361v-0.406l0.021-0.481     c0.007-0.169,0.02-0.442,0.033-0.824c-0.562,0.954-1.171,1.581-1.822,1.88c-0.489,0.228-1.195,0.338-2.118,0.338     c-1.104,0-1.981-0.28-2.63-0.844c-0.647-0.562-0.972-1.308-0.972-2.234c0-1.277,0.646-2.203,1.933-2.771     c0.938-0.408,2.138-0.613,3.602-0.613c0.365,0,0.75,0.012,1.152,0.032l0.604,0.044c-0.029-2.145-1.018-3.216-2.964-3.216     c-1.054,0-2.067,0.304-3.04,0.911l-0.088-1.285c1.09-0.614,2.242-0.922,3.457-0.922c2.151,0,3.466,0.806,3.94,2.415     c0.109,0.396,0.18,0.882,0.208,1.46c0.016,0.309,0.022,0.666,0.022,1.074v2.295C33.258,173.784,33.292,174.955,33.357,175.709z      M31.765,170.539l-0.396-0.044c-0.352-0.029-0.662-0.044-0.934-0.044c-1.383,0-2.43,0.179-3.14,0.535     c-0.761,0.396-1.143,0.98-1.143,1.764c0,0.891,0.474,1.484,1.416,1.785c0.278,0.095,0.582,0.142,0.911,0.142     c0.731,0,1.374-0.188,1.928-0.562c0.553-0.375,0.941-0.902,1.169-1.582c0.08-0.257,0.136-0.636,0.165-1.14     C31.758,171.15,31.765,170.867,31.765,170.539z"/>
      </g>
    </g>
    <g>
      <g>
        <path fill="#FFFFFF" d="M49.315,170.281c0,1.695-0.421,3.049-1.262,4.058c-0.842,1.011-1.936,1.515-3.282,1.515     c-0.959,0-1.753-0.207-2.382-0.623c-0.571-0.379-1.095-0.994-1.57-1.848c0.044,0.725,0.066,1.376,0.066,1.954v4.95h-1.603     v-10.538c0-0.87-0.026-2.013-0.077-3.426c-0.016-0.401-0.033-0.789-0.056-1.162h1.504l0.056,2.315     c0.541-0.907,1.171-1.57,1.888-1.987c0.622-0.357,1.361-0.537,2.218-0.537c1.339,0,2.422,0.482,3.249,1.447     C48.898,167.386,49.315,168.68,49.315,170.281z M47.592,170.412c0-1.213-0.291-2.21-0.873-2.992     c-0.582-0.782-1.353-1.173-2.311-1.173c-0.776,0-1.461,0.236-2.054,0.712c-0.557,0.453-0.959,1.057-1.208,1.81     c-0.175,0.512-0.263,1.066-0.263,1.667c0,0.797,0.168,1.53,0.505,2.203c0.373,0.73,0.894,1.264,1.559,1.601     c0.418,0.221,0.874,0.329,1.372,0.329c0.739,0,1.384-0.252,1.933-0.758c0.498-0.444,0.863-1.037,1.098-1.773     C47.511,171.529,47.592,170.99,47.592,170.412z"/>
      </g>
    </g>
    <g>
      <g>
        <path fill="#FFFFFF" d="M60.247,172.777c0,1.449-0.739,2.416-2.219,2.897c-0.468,0.154-0.99,0.229-1.568,0.229     c-0.944,0-1.822-0.184-2.635-0.549v-1.328c0.906,0.396,1.693,0.594,2.359,0.594c1.046,0,1.765-0.322,2.151-0.969     c0.124-0.205,0.187-0.438,0.187-0.692c0-0.491-0.208-0.897-0.624-1.222c-0.131-0.104-0.316-0.217-0.558-0.342     c-0.074-0.035-0.206-0.101-0.397-0.191l-0.855-0.417c-0.783-0.381-1.336-0.729-1.658-1.043c-0.49-0.481-0.736-1.091-0.736-1.821     c0-1.39,0.703-2.312,2.108-2.765c0.438-0.14,0.937-0.209,1.492-0.209c0.725,0,1.5,0.128,2.327,0.385l-0.109,1.24     c-0.688-0.293-1.369-0.439-2.042-0.439c-0.944,0-1.577,0.304-1.899,0.911c-0.108,0.198-0.163,0.421-0.163,0.67     c0,0.658,0.553,1.259,1.656,1.801l0.834,0.405c0.879,0.425,1.489,0.851,1.834,1.279     C60.075,171.631,60.247,172.156,60.247,172.777z"/>
      </g>
    </g>
    <g>
      <g>
        <path fill="#FFFFFF" d="M83.151,175.709h-8.034v-14.557h1.7v13.174h6.334V175.709z"/>
      </g>
    </g>
    <g>
      <g>
        <path fill="#FFFFFF" d="M97.923,170.527c0,1.597-0.512,2.904-1.536,3.932c-1.025,1.023-2.327,1.536-3.908,1.536     c-1.544,0-2.826-0.522-3.848-1.569s-1.531-2.367-1.531-3.963c0-1.625,0.507-2.964,1.521-4.019c1.014-1.054,2.3-1.581,3.857-1.581     c1.61,0,2.92,0.525,3.931,1.575C97.418,167.489,97.923,168.853,97.923,170.527z M96.201,170.527c0-1.295-0.342-2.366-1.021-3.216     c-0.68-0.849-1.565-1.272-2.656-1.272c-0.827,0-1.548,0.253-2.162,0.758c-0.577,0.468-1.003,1.102-1.272,1.897     c-0.185,0.542-0.274,1.125-0.274,1.746c0,1.28,0.345,2.33,1.031,3.15c0.688,0.819,1.581,1.229,2.679,1.229     c0.812,0,1.522-0.244,2.13-0.733c0.578-0.461,1.002-1.083,1.273-1.866C96.109,171.698,96.201,171.136,96.201,170.527z"/>
      </g>
    </g>
    <g>
      <g>
        <path fill="#FFFFFF" d="M110.183,175.377c-0.702,0.314-1.521,0.475-2.459,0.475c-1.617,0-2.914-0.494-3.892-1.482     c-0.978-0.99-1.465-2.301-1.465-3.928c0-1.511,0.432-2.748,1.295-3.708c1.039-1.15,2.371-1.728,3.996-1.728     c0.797,0,1.551,0.13,2.261,0.388l-0.1,1.304c-0.533-0.264-1.138-0.396-1.812-0.396c-1.148,0-2.091,0.382-2.826,1.146     c-0.735,0.764-1.104,1.73-1.104,2.904c0,1.233,0.357,2.244,1.075,3.032c0.718,0.789,1.653,1.185,2.811,1.185     c0.739,0,1.442-0.188,2.107-0.561L110.183,175.377z"/>
      </g>
    </g>
    <g>
      <g>
        <path fill="#FFFFFF" d="M124.111,175.709h-2.271l-4.228-4.589c-0.263-0.285-0.481-0.493-0.657-0.625     c-0.104-0.073-0.238-0.169-0.406-0.286c0,0.232,0,0.41,0,0.525l-0.011,0.33c-0.016,0.328-0.022,0.615-0.022,0.855v3.787h-1.613     v-15.752h1.613v9.9c0.33-0.293,0.647-0.594,0.955-0.899l0.297-0.296l3.513-3.502h2.098l-4.885,4.619L124.111,175.709z"/>
      </g>
    </g>
  </g>
  <g>
    <g>
      <g>
        <path fill="#FFFFFF" d="M882.396,178.042h-8.969v-16.157h8.772v1.535h-6.886v5.397h6.386v1.535h-6.386v6.154h7.08     L882.396,178.042L882.396,178.042z"/>
      </g>
    </g>
    <g>
      <g>
        <path fill="#FFFFFF" d="M899.112,178.042h-1.779v-5.252c0-0.991-0.012-1.656-0.036-1.998c-0.033-0.414-0.089-0.776-0.17-1.085     c-0.398-1.445-1.332-2.168-2.804-2.168c-0.828,0-1.56,0.251-2.192,0.755c-0.603,0.486-1.022,1.133-1.269,1.938     c-0.153,0.52-0.242,1.25-0.269,2.192c-0.008,0.374-0.012,0.837-0.012,1.39v4.229h-1.779v-5.8c0-2.146-0.049-4.114-0.146-5.909     h1.633l0.136,2.412c0.617-0.927,1.295-1.608,2.035-2.047c0.674-0.398,1.461-0.598,2.362-0.598c2.088,0,3.416,0.936,3.983,2.803     c0.104,0.35,0.185,0.804,0.231,1.365c0.05,0.584,0.072,1.36,0.072,2.326L899.112,178.042L899.112,178.042z"/>
      </g>
    </g>
    <g>
      <g>
        <path fill="#FFFFFF" d="M911.672,177.918c-0.65,0.188-1.269,0.282-1.853,0.282c-1.705,0-2.759-0.659-3.156-1.978     c-0.112-0.373-0.188-0.906-0.219-1.598c-0.017-0.352-0.024-0.766-0.024-1.245v-5.771h-2.814v-1.278h2.814v-2.815l1.791-0.608     v3.424h3.217v1.278h-3.217v5.088c0,1.235,0.041,2.054,0.123,2.452c0.219,1.082,0.922,1.623,2.106,1.623     c0.391,0,0.801-0.09,1.229-0.269L911.672,177.918L911.672,177.918z"/>
      </g>
    </g>
    <g>
      <g>
        <path fill="#FFFFFF" d="M926.889,172.521h-8.834c0.162,1.381,0.633,2.465,1.414,3.254c0.754,0.771,1.737,1.158,2.949,1.158     c1.209,0,2.393-0.326,3.545-0.976v1.597c-1.211,0.536-2.435,0.805-3.668,0.805c-1.837,0-3.294-0.564-4.375-1.692     c-1.08-1.13-1.619-2.66-1.619-4.595c0-1.836,0.506-3.306,1.516-4.41c1.013-1.105,2.347-1.658,4.005-1.658     c1.606,0,2.854,0.545,3.739,1.634c0.886,1.112,1.328,2.692,1.328,4.739V172.521L926.889,172.521z M925.146,171.243     c-0.098-0.685-0.192-1.195-0.286-1.536c-0.095-0.34-0.231-0.654-0.42-0.938c-0.634-0.975-1.531-1.462-2.691-1.462     c-1.495,0-2.571,0.76-3.229,2.278c-0.211,0.487-0.36,1.04-0.45,1.658H925.146z"/>
      </g>
    </g>
    <g>
      <g>
        <path fill="#FFFFFF" d="M938.998,167.806c-0.274-0.072-0.553-0.109-0.827-0.109c-1.683,0-2.812,0.904-3.39,2.714     c-0.153,0.494-0.242,1.14-0.269,1.937c-0.008,0.314-0.012,0.7-0.012,1.155v4.54h-1.779v-7.189c0-0.877-0.049-2.383-0.146-4.521     h1.608l0.05,2.546c0.502-1.01,1.084-1.73,1.741-2.159c0.576-0.372,1.257-0.559,2.035-0.559c0.332,0,0.662,0.042,0.986,0.122     L938.998,167.806L938.998,167.806z"/>
      </g>
    </g>
  </g>
  <g>
    <g>
      <g>
        <path fill="#FFFFFF" d="M889.588,232.277h-1.79v-1.812h1.79V232.277z M889.544,245.9h-1.614v-10.549h1.614V245.9z"/>
      </g>
    </g>
    <g>
      <g>
        <path fill="#FFFFFF" d="M901.024,236.505h-2.985v9.396h-1.604v-9.396h-2.59v-1.153h2.59v-0.689c0-1.492,0.185-2.551,0.551-3.174     c0.549-0.937,1.475-1.403,2.775-1.403c0.461,0,0.882,0.048,1.264,0.144v1.239c-0.322-0.059-0.594-0.088-0.812-0.088     c-1.068,0-1.729,0.429-1.986,1.284c-0.125,0.418-0.188,1.07-0.188,1.965v0.725h2.985L901.024,236.505L901.024,236.505z"/>
      </g>
    </g>
    <g>
      <g>
        <path fill="#FFFFFF" d="M911.164,245.789c-0.586,0.17-1.143,0.255-1.669,0.255c-1.536,0-2.483-0.594-2.843-1.78     c-0.104-0.337-0.168-0.816-0.197-1.438c-0.016-0.313-0.021-0.688-0.021-1.121v-5.197h-2.534v-1.153h2.534v-2.535l1.614-0.549     v3.084h2.896v1.153h-2.896v4.583c0,1.114,0.036,1.852,0.108,2.21c0.196,0.974,0.831,1.462,1.898,1.462     c0.352,0,0.722-0.08,1.107-0.242L911.164,245.789L911.164,245.789z"/>
      </g>
    </g>
    <g>
      <g>
        <path fill="#FFFFFF" d="M867.791,241.895c0,1.28-0.444,2.315-1.334,3.106c-0.889,0.79-2.072,1.187-3.551,1.187     c-1.143,0-2.21-0.176-3.206-0.526l0.177-1.524c1.023,0.452,1.942,0.68,2.756,0.68c0.986,0,1.785-0.25,2.394-0.752     c0.606-0.502,0.911-1.172,0.911-2.015c0-1.118-0.816-2.061-2.448-2.821l-0.822-0.383c-1.172-0.55-2.002-1.121-2.491-1.714     c-0.49-0.593-0.734-1.327-0.734-2.206c0-1.164,0.408-2.101,1.229-2.812c0.818-0.709,1.908-1.063,3.271-1.063     c0.994,0,2.009,0.157,3.041,0.473l-0.209,1.438c-0.995-0.354-1.869-0.527-2.623-0.527c-0.843,0-1.539,0.207-2.092,0.621     s-0.828,0.971-0.828,1.674c0,0.812,0.457,1.513,1.371,2.099c0.301,0.196,0.691,0.417,1.176,0.657l0.812,0.406     c1.229,0.613,2.07,1.211,2.524,1.789C867.565,240.255,867.791,240.994,867.791,241.895z"/>
      </g>
    </g>
    <g>
      <g>
        <path fill="#FFFFFF" d="M882.269,245.9h-1.604v-4.545c0-0.849-0.015-1.475-0.043-1.877c-0.044-0.453-0.101-0.809-0.165-1.063     c-0.352-1.315-1.188-1.978-2.514-1.978c-0.843,0-1.562,0.283-2.163,0.848c-0.562,0.533-0.927,1.222-1.086,2.062     c-0.065,0.321-0.105,0.771-0.121,1.35c-0.008,0.302-0.011,0.654-0.011,1.064v4.139h-1.614v-15.752h1.614v5.556     c0,0.146-0.016,0.718-0.045,1.713c0.373-0.694,0.911-1.248,1.613-1.658c0.703-0.409,1.448-0.614,2.238-0.614     c1.771,0,2.941,0.739,3.514,2.217c0.146,0.375,0.245,0.779,0.297,1.221c0.06,0.482,0.088,1.07,0.088,1.768L882.269,245.9     L882.269,245.9z"/>
      </g>
    </g>
  </g>
  <g>
    <g>
      <g>
        <path fill="#FFFFFF" d="M825.698,305.814c0,1.901-0.845,3.189-2.535,3.863c-0.717,0.285-1.853,0.429-3.401,0.429h-1.404v6.004     h-1.702v-14.556h2.756c1.076,0,1.853,0.024,2.327,0.076c1.018,0.125,1.841,0.425,2.47,0.899     C825.201,303.308,825.698,304.402,825.698,305.814z M823.855,305.814c0-1.384-0.699-2.271-2.097-2.668     c-0.205-0.059-0.528-0.107-0.974-0.147c-0.441-0.04-0.879-0.062-1.312-0.062h-1.12v5.785h1.384c1.303,0,2.218-0.149,2.745-0.449     C823.398,307.754,823.855,306.934,823.855,305.814z"/>
      </g>
    </g>
    <g>
      <g>
        <path fill="#FFFFFF" d="M836.224,306.89c-0.248-0.064-0.498-0.1-0.745-0.1c-1.517,0-2.532,0.815-3.053,2.445     c-0.141,0.445-0.221,1.026-0.241,1.743c-0.008,0.284-0.012,0.633-0.012,1.041v4.09h-1.603v-6.477     c0-0.791-0.045-2.147-0.134-4.073h1.449l0.044,2.296c0.454-0.911,0.979-1.561,1.568-1.945c0.521-0.335,1.132-0.503,1.834-0.503     c0.301,0,0.597,0.036,0.89,0.108L836.224,306.89L836.224,306.89z"/>
      </g>
    </g>
    <g>
      <g>
        <path fill="#FFFFFF" d="M846.431,315.998c-0.586,0.171-1.144,0.256-1.67,0.256c-1.536,0-2.483-0.595-2.842-1.78     c-0.104-0.337-0.169-0.816-0.198-1.439c-0.016-0.313-0.021-0.688-0.021-1.121v-5.196h-2.534v-1.152h2.534v-2.535l1.614-0.55     v3.085h2.896v1.152h-2.896v4.583c0,1.113,0.036,1.852,0.109,2.21c0.196,0.975,0.83,1.461,1.897,1.461     c0.353,0,0.722-0.08,1.108-0.24L846.431,315.998L846.431,315.998z"/>
      </g>
    </g>
    <g>
      <g>
        <path fill="#FFFFFF" d="M859.041,312.104c0,1.28-0.444,2.315-1.334,3.106c-0.89,0.789-2.072,1.187-3.552,1.187     c-1.142,0-2.209-0.177-3.205-0.527l0.177-1.524c1.023,0.453,1.942,0.682,2.756,0.682c0.986,0,1.785-0.251,2.394-0.752     c0.606-0.503,0.911-1.174,0.911-2.016c0-1.119-0.816-2.061-2.448-2.821l-0.822-0.384c-1.172-0.549-2.002-1.12-2.491-1.713     c-0.49-0.594-0.736-1.328-0.736-2.206c0-1.164,0.41-2.102,1.229-2.812c0.818-0.709,1.909-1.063,3.271-1.063     c0.995,0,2.01,0.156,3.04,0.473l-0.208,1.438c-0.994-0.352-1.869-0.526-2.624-0.526c-0.841,0-1.538,0.207-2.09,0.62     c-0.554,0.414-0.83,0.973-0.83,1.675c0,0.812,0.458,1.512,1.373,2.098c0.3,0.196,0.69,0.417,1.174,0.658l0.812,0.405     c1.229,0.613,2.071,1.211,2.525,1.789C858.814,310.465,859.041,311.203,859.041,312.104z"/>
      </g>
    </g>
    <g>
      <g>
        <path fill="#FFFFFF" d="M871.322,315.778c-0.702,0.316-1.521,0.477-2.459,0.477c-1.617,0-2.914-0.495-3.892-1.485     c-0.979-0.989-1.466-2.299-1.466-3.927c0-1.511,0.433-2.746,1.296-3.707c1.039-1.15,2.371-1.728,3.995-1.728     c0.798,0,1.552,0.129,2.261,0.388l-0.098,1.304c-0.535-0.264-1.14-0.396-1.812-0.396c-1.147,0-2.091,0.383-2.826,1.146     c-0.734,0.764-1.104,1.73-1.104,2.905c0,1.231,0.358,2.242,1.076,3.031c0.717,0.789,1.653,1.184,2.812,1.184     c0.737,0,1.44-0.188,2.106-0.561L871.322,315.778z"/>
      </g>
    </g>
  </g>
  <g>
    <g>
      <g>
        <path fill="#FFFFFF" d="M26.579,304.649h-2.985v9.396h-1.603v-9.396H19.4v-1.153h2.591v-0.69c0-1.491,0.183-2.55,0.549-3.172     c0.549-0.938,1.474-1.405,2.776-1.405c0.461,0,0.883,0.049,1.263,0.144v1.24c-0.322-0.06-0.593-0.088-0.812-0.088     c-1.068,0-1.73,0.429-1.987,1.283c-0.125,0.418-0.187,1.072-0.187,1.966v0.725h2.985L26.579,304.649L26.579,304.649     L26.579,304.649z"/>
      </g>
    </g>
    <g>
      <g>
        <path fill="#FFFFFF" d="M40.485,314.045h-1.603v-4.729c0-0.894-0.011-1.493-0.033-1.802c-0.029-0.373-0.081-0.697-0.154-0.978     c-0.357-1.303-1.199-1.953-2.523-1.953c-0.747,0-1.405,0.228-1.977,0.681c-0.542,0.438-0.922,1.021-1.142,1.745     c-0.139,0.469-0.22,1.127-0.242,1.978c-0.007,0.336-0.011,0.753-0.011,1.251v3.81h-1.604v-5.226c0-1.933-0.044-3.706-0.132-5.324     h1.472l0.121,2.175c0.556-0.834,1.167-1.449,1.833-1.845c0.606-0.357,1.316-0.538,2.129-0.538c1.881,0,3.076,0.843,3.59,2.523     c0.095,0.314,0.165,0.726,0.208,1.229c0.044,0.526,0.065,1.226,0.065,2.097v4.906H40.485L40.485,314.045z"/>
      </g>
    </g>
  </g>
  <g>
    <g>
      <g>
        <path fill="#FFFFFF" d="M86.615,314.179c-0.812,0.249-1.56,0.393-2.239,0.429c-0.265,0.015-0.549,0.021-0.856,0.021     c-2.137,0-3.864-0.51-5.181-1.526c-1.815-1.396-2.722-3.377-2.722-5.938c0-2.157,0.708-3.917,2.124-5.273     s3.258-2.035,5.526-2.035c1.251,0,2.312,0.197,3.184,0.593l-0.132,1.525c-0.951-0.489-1.932-0.735-2.941-0.735     c-1.728,0-3.145,0.548-4.248,1.643c-1.105,1.094-1.658,2.508-1.658,4.241c0,1.734,0.567,3.176,1.702,4.319     c1.134,1.146,2.568,1.719,4.303,1.719c0.974,0,1.979-0.193,3.02-0.582L86.615,314.179z"/>
      </g>
    </g>
    <g>
      <g>
        <path fill="#FFFFFF" d="M97.063,314.407c-0.586,0.17-1.142,0.255-1.669,0.255c-1.537,0-2.483-0.594-2.843-1.779     c-0.103-0.337-0.168-0.816-0.198-1.439c-0.015-0.313-0.021-0.688-0.021-1.121v-5.197h-2.536v-1.152h2.536v-2.534l1.613-0.55     v3.084h2.898v1.152h-2.898v4.584c0,1.113,0.037,1.852,0.11,2.21c0.197,0.974,0.831,1.461,1.899,1.461     c0.351,0,0.721-0.08,1.108-0.241L97.063,314.407L97.063,314.407z"/>
      </g>
    </g>
    <g>
      <g>
        <path fill="#FFFFFF" d="M107.697,305.298c-0.249-0.064-0.497-0.1-0.745-0.1c-1.516,0-2.532,0.814-3.053,2.444     c-0.139,0.446-0.22,1.027-0.241,1.743c-0.008,0.285-0.012,0.633-0.012,1.042v4.089h-1.603v-6.476     c0-0.791-0.044-2.148-0.132-4.073h1.448l0.044,2.295c0.454-0.911,0.978-1.561,1.57-1.944c0.521-0.335,1.131-0.503,1.833-0.503     c0.3,0,0.597,0.035,0.889,0.108L107.697,305.298L107.697,305.298z"/>
      </g>
    </g>
    <g>
      <g>
        <path fill="#FFFFFF" d="M113.854,314.519h-1.613v-15.752h1.613V314.519z"/>
      </g>
    </g>
  </g>
  <g>
    <g>
      <g>
        <path fill="#FFFFFF" d="M916.161,314.179c-0.812,0.249-1.56,0.393-2.238,0.429c-0.265,0.015-0.55,0.021-0.855,0.021     c-2.138,0-3.863-0.51-5.182-1.526c-1.814-1.396-2.724-3.377-2.724-5.938c0-2.157,0.708-3.917,2.124-5.273     s3.259-2.035,5.526-2.035c1.252,0,2.312,0.197,3.184,0.593l-0.131,1.525c-0.952-0.489-1.934-0.735-2.941-0.735     c-1.728,0-3.145,0.548-4.248,1.643c-1.104,1.094-1.656,2.508-1.656,4.241c0,1.734,0.564,3.176,1.7,4.319     c1.134,1.146,2.567,1.719,4.304,1.719c0.974,0,1.979-0.193,3.019-0.582L916.161,314.179z"/>
      </g>
    </g>
    <g>
      <g>
        <path fill="#FFFFFF" d="M926.61,314.407c-0.586,0.17-1.143,0.255-1.669,0.255c-1.537,0-2.484-0.594-2.844-1.779     c-0.104-0.337-0.169-0.816-0.197-1.439c-0.016-0.313-0.021-0.688-0.021-1.121v-5.197h-2.536v-1.152h2.536v-2.534l1.612-0.55     v3.084h2.897v1.152h-2.897v4.584c0,1.113,0.037,1.852,0.109,2.21c0.197,0.974,0.83,1.461,1.897,1.461     c0.353,0,0.722-0.08,1.109-0.241L926.61,314.407L926.61,314.407z"/>
      </g>
    </g>
    <g>
      <g>
        <path fill="#FFFFFF" d="M937.243,305.298c-0.248-0.064-0.497-0.1-0.745-0.1c-1.516,0-2.532,0.814-3.053,2.444     c-0.14,0.446-0.221,1.027-0.241,1.743c-0.008,0.285-0.011,0.633-0.011,1.042v4.089h-1.604v-6.476     c0-0.791-0.044-2.148-0.132-4.073h1.447l0.044,2.295c0.454-0.911,0.979-1.561,1.569-1.944c0.521-0.335,1.132-0.503,1.833-0.503     c0.301,0,0.598,0.035,0.89,0.108L937.243,305.298L937.243,305.298z"/>
      </g>
    </g>
    <g>
      <g>
        <path fill="#FFFFFF" d="M943.4,314.519h-1.613v-15.752h1.613V314.519z"/>
      </g>
    </g>
  </g>
  <g>
    <g>
      <g>
        <path fill="#FFFFFF" d="M681.675,314.519h-1.925l-1.578-3.798h-7.562l-1.557,3.798h-1.837l6.189-14.555h1.966L681.675,314.519z      M677.614,309.338l-1.857-4.49c-0.47-1.135-0.928-2.346-1.374-3.634c-0.151,0.357-0.454,1.095-0.902,2.208     c-0.125,0.313-0.323,0.81-0.596,1.48l-1.79,4.436H677.614L677.614,309.338z"/>
      </g>
    </g>
    <g>
      <g>
        <path fill="#FFFFFF" d="M687.754,314.519h-1.614v-15.752h1.614V314.519z"/>
      </g>
    </g>
    <g>
      <g>
        <path fill="#FFFFFF" d="M699.201,314.407c-0.586,0.17-1.143,0.255-1.669,0.255c-1.537,0-2.483-0.594-2.843-1.779     c-0.104-0.337-0.17-0.816-0.198-1.439c-0.016-0.313-0.021-0.688-0.021-1.121v-5.197h-2.536v-1.152h2.536v-2.534l1.613-0.55v3.084     h2.896v1.152h-2.896v4.584c0,1.113,0.036,1.852,0.109,2.21c0.196,0.974,0.829,1.461,1.897,1.461c0.353,0,0.721-0.08,1.108-0.241     L699.201,314.407L699.201,314.407z"/>
      </g>
    </g>
  </g>
  <g>
    <g>
      <g>
        <polygon fill="#FFFFFF" points="142.927,294.568 154.898,292.219 154.898,305.365 142.927,305.658    "/>
      </g>
    </g>
    <g>
      <g>
        <polyline fill="#FFFFFF" points="142.927,306.906 154.898,306.906 154.898,320.054 142.927,317.85    "/>
      </g>
    </g>
    <g>
      <g>
        <polyline fill="#FFFFFF" points="156.808,292.219 175.976,288.033 175.976,305.218 156.808,305.658    "/>
      </g>
    </g>
    <g>
      <g>
        <polyline fill="#FFFFFF" points="156.808,306.906 175.976,307.348 175.976,324.24 156.808,320.641    "/>
      </g>
    </g>
  </g>
  <g>
    <g>
      <g>
        <polygon fill="#FFFFFF" points="747.594,294.568 759.565,292.219 759.565,305.365 747.594,305.658    "/>
      </g>
    </g>
    <g>
      <g>
        <polyline fill="#FFFFFF" points="747.594,306.906 759.565,306.906 759.565,320.054 747.594,317.85    "/>
      </g>
    </g>
    <g>
      <g>
        <polyline fill="#FFFFFF" points="761.475,292.219 780.643,288.033 780.643,305.218 761.475,305.658    "/>
      </g>
    </g>
    <g>
      <g>
        <polyline fill="#FFFFFF" points="761.475,306.906 780.643,307.348 780.643,324.24 761.475,320.641    "/>
      </g>
    </g>
  </g>
  <g>
    <g>
      <g>
        <g>
          <polygon fill="#FFFFFF" points="944.616,30.07 924.753,30.07 934.362,20.461 933.755,19.854 923.716,29.892 923.106,30.5       923.716,31.108 933.755,41.147 934.362,40.539 924.753,30.93 944.616,30.93     "/>
        </g>
        <g>
          <path fill="#FFFFFF" d="M933.755,41.583L922.671,30.5l11.084-11.083l1.043,1.044l-9.299,9.3h19.426v1.478h-19.426l9.299,9.3      L933.755,41.583z M923.542,30.5l10.213,10.21l0.17-0.172l-9.916-9.917h20.299v-0.243h-20.299l9.918-9.917l-0.172-0.173      L923.542,30.5z"/>
        </g>
      </g>
    </g>
  </g>
  <g>
    <g>
      <g>
        <path fill="#FFFFFF" d="M60.94,241.895c0,1.28-0.444,2.315-1.334,3.106c-0.889,0.79-2.072,1.187-3.551,1.187     c-1.142,0-2.21-0.176-3.206-0.526l0.176-1.524c1.024,0.452,1.943,0.68,2.755,0.68c0.988,0,1.786-0.25,2.394-0.752     c0.606-0.502,0.911-1.172,0.911-2.015c0-1.118-0.816-2.061-2.448-2.821l-0.823-0.383c-1.171-0.55-2.001-1.121-2.492-1.714     c-0.49-0.593-0.734-1.327-0.734-2.206c0-1.164,0.41-2.101,1.229-2.812c0.819-0.709,1.91-1.063,3.271-1.063     c0.995,0,2.009,0.157,3.041,0.473l-0.208,1.438c-0.995-0.354-1.87-0.527-2.624-0.527c-0.841,0-1.539,0.207-2.091,0.621     c-0.554,0.414-0.829,0.971-0.829,1.674c0,0.812,0.458,1.513,1.372,2.099c0.3,0.196,0.691,0.417,1.175,0.657l0.812,0.406     c1.229,0.613,2.071,1.211,2.525,1.789C60.715,240.257,60.94,240.994,60.94,241.895z"/>
      </g>
    </g>
    <g>
      <g>
        <path fill="#FFFFFF" d="M75.417,245.9h-1.604v-4.545c0-0.849-0.015-1.475-0.043-1.877c-0.044-0.453-0.099-0.809-0.165-1.063     c-0.351-1.315-1.188-1.978-2.514-1.978c-0.841,0-1.562,0.283-2.163,0.848c-0.562,0.533-0.926,1.222-1.086,2.062     c-0.066,0.321-0.106,0.771-0.121,1.35c-0.008,0.302-0.011,0.654-0.011,1.064v4.139h-1.614v-15.752h1.614v5.556     c0,0.146-0.016,0.718-0.044,1.713c0.374-0.694,0.911-1.248,1.613-1.658c0.703-0.409,1.449-0.614,2.239-0.614     c1.771,0,2.942,0.739,3.514,2.217c0.146,0.375,0.244,0.779,0.296,1.221c0.059,0.482,0.088,1.07,0.088,1.768L75.417,245.9     L75.417,245.9z"/>
      </g>
    </g>
    <g>
      <g>
        <path fill="#FFFFFF" d="M82.736,232.277h-1.79v-1.812h1.79V232.277z M82.692,245.9h-1.613v-10.549h1.613V245.9z"/>
      </g>
    </g>
    <g>
      <g>
        <path fill="#FFFFFF" d="M94.171,236.505h-2.985v9.396h-1.603v-9.396h-2.59v-1.153h2.59v-0.689c0-1.492,0.183-2.551,0.549-3.174     c0.549-0.937,1.474-1.403,2.777-1.403c0.461,0,0.882,0.048,1.262,0.144v1.239c-0.322-0.059-0.592-0.088-0.812-0.088     c-1.067,0-1.73,0.429-1.986,1.284c-0.125,0.418-0.188,1.07-0.188,1.965v0.725h2.985L94.171,236.505L94.171,236.505z"/>
      </g>
    </g>
    <g>
      <g>
        <path fill="#FFFFFF" d="M104.312,245.789c-0.586,0.17-1.142,0.255-1.669,0.255c-1.537,0-2.483-0.594-2.843-1.78     c-0.104-0.337-0.168-0.816-0.198-1.438c-0.015-0.313-0.021-0.688-0.021-1.121v-5.197h-2.536v-1.153h2.536v-2.535l1.613-0.549     v3.084h2.898v1.153h-2.898v4.583c0,1.114,0.037,1.852,0.11,2.21c0.197,0.974,0.831,1.462,1.899,1.462     c0.351,0,0.721-0.08,1.108-0.242L104.312,245.789L104.312,245.789z"/>
      </g>
    </g>
  </g>
</svg>