<svg id="Layer_1" data-name="Layer 1" xmlns="http://www.w3.org/2000/svg" width="311.32039" height="188.34249" viewBox="0 0 311.32039 188.34249" fill="white"><title>robotfriends2</title><polygon points="296.975 79.247 311.32 93.593 296.975 108.054 296.975 79.247"/><polygon points="14.345 79.247 0 93.593 14.345 108.054 14.345 79.247"/><path d="M155.718,249.83125A94.17125,94.17125,0,1,1,249.8893,155.66,94.25429,94.25429,0,0,1,155.718,249.83125Zm0-167.287a73.34714,73.34714,0,1,0,73.34717,73.34714A73.36914,73.36914,0,0,0,155.718,82.54424Z" transform="translate(0 -61.48875)"/><path d="M71.149,228.77576H79.1316c-1.504-1.61964-2.89223-3.23931-4.39618-4.85895a106.60621,106.60621,0,0,1,0-137.43912c1.38828-1.73534,2.89223-3.2393,4.39618-4.859H71.149l-4.859,4.859h-6.71a117.90544,117.90544,0,0,0,0,137.43912h6.71Z" transform="translate(0 -61.48875)"/><path d="M240.28708,228.77576h-7.9826c1.50395-1.61964,2.89224-3.23931,4.39619-4.85895a106.60624,106.60624,0,0,0,0-137.43912c-1.38829-1.73534-2.89224-3.2393-4.39619-4.859h7.9826l4.859,4.859h6.71a117.90561,117.90561,0,0,1,0,137.43912h-6.71Z" transform="translate(0 -61.48875)"/><path d="M281.24112,155.08155a125.76977,125.76977,0,0,0-7.9826-44.07769l13.65134,13.65136a132.9114,132.9114,0,0,1,3.47069,30.542,139.61746,139.61746,0,0,1-3.47069,30.542l-13.65134,13.65136A128.043,128.043,0,0,0,281.24112,155.08155Z" transform="translate(0 -61.48875)"/><path d="M30.19493,155.08155a125.77044,125.77044,0,0,1,7.98257-44.07769L24.52615,124.65522a132.9114,132.9114,0,0,0-3.47068,30.542,139.6199,139.6199,0,0,0,3.47068,30.542L38.1775,199.39064A125.40331,125.40331,0,0,1,30.19493,155.08155Z" transform="translate(0 -61.48875)"/><ellipse cx="128.53099" cy="67.67835" rx="14.46119" ry="18.51032"/><ellipse cx="181.74816" cy="65.94301" rx="14.46119" ry="18.51032"/></svg>